M48
; DRILL file {KiCad 9.0.5} date 2025-10-13T11:36:19+0200
; FORMAT={-:-/ absolute / metric / decimal}
; #@! TF.CreationDate,2025-10-13T11:36:19+02:00
; #@! TF.GenerationSoftware,Kicad,Pcbnew,9.0.5
; #@! TF.FileFunction,Plated,1,2,PTH
FMAT,2
METRIC
; #@! TA.AperFunction,Plated,PTH,ViaDrill
T1C0.300
; #@! TA.AperFunction,Plated,PTH,ViaDrill
T2C0.500
; #@! TA.AperFunction,Plated,PTH,ComponentDrill
T3C1.000
; #@! TA.AperFunction,Plated,PTH,ComponentDrill
T4C1.016
; #@! TA.AperFunction,Plated,PTH,ComponentDrill
T5C1.190
%
G90
G05
T1
X103.0Y-130.0
X105.0Y-136.28
X107.0Y-113.0
X110.24Y-94.22
X110.24Y-102.22
X111.24Y-90.22
X111.817Y-110.817
X112.3Y-143.2
X113.0Y-123.6
X114.0Y-112.0
X114.0Y-141.0
X116.0Y-115.0
X116.36Y-83.302
X117.0Y-100.0
X118.3Y-104.9
X119.4Y-98.0
X120.0Y-87.0
X120.4Y-84.6
X121.0Y-88.0
X121.0Y-89.0
X121.24Y-95.22
X121.6Y-97.2
X121.931Y-88.15
X122.0Y-96.0
X122.0Y-122.2
X122.2Y-134.3
X123.995Y-93.168
X124.0Y-136.0
X124.24Y-91.276
X124.8Y-82.2
X126.0Y-136.0
X126.24Y-75.22
X128.24Y-83.22
X128.24Y-91.22
X132.107Y-90.047
X136.0Y-100.0
T2
X122.217Y-90.447
T3
X110.46Y-121.0
X110.46Y-126.0
X110.46Y-131.0
X110.46Y-136.0
X113.0Y-121.0
X113.0Y-126.0
X113.0Y-131.0
X113.0Y-136.0
X115.54Y-121.0
X115.54Y-126.0
X115.54Y-131.0
X115.54Y-136.0
T4
X129.0Y-100.06
X129.0Y-102.6
X129.0Y-105.14
X129.0Y-107.68
X129.0Y-110.22
X129.0Y-112.76
X129.0Y-115.3
X129.0Y-117.84
X129.0Y-120.38
X129.0Y-122.92
X129.0Y-125.46
X129.0Y-128.0
X129.0Y-130.54
X129.0Y-133.08
X129.0Y-135.62
X144.24Y-100.06
X144.24Y-102.6
X144.24Y-105.14
X144.24Y-107.68
X144.24Y-110.22
X144.24Y-112.76
X144.24Y-115.3
X144.24Y-117.84
X144.24Y-120.38
X144.24Y-122.92
X144.24Y-125.46
X144.24Y-128.0
X144.24Y-130.54
X144.24Y-133.08
X144.24Y-135.62
T5
X108.04Y-145.22
X110.58Y-145.22
X113.12Y-145.22
X115.66Y-145.22
X118.2Y-145.22
X120.74Y-145.22
X123.28Y-145.22
X125.82Y-145.22
M30
