%TF.GenerationSoftware,KiCad,Pcbnew,9.0.5*%
%TF.CreationDate,2025-10-13T11:36:34+02:00*%
%TF.ProjectId,MAX31865,4d415833-3138-4363-952e-6b696361645f,rev?*%
%TF.SameCoordinates,Original*%
%TF.FileFunction,Soldermask,Bot*%
%TF.FilePolarity,Negative*%
%FSLAX46Y46*%
G04 Gerber Fmt 4.6, Leading zero omitted, Abs format (unit mm)*
G04 Created by KiCad (PCBNEW 9.0.5) date 2025-10-13 11:36:34*
%MOMM*%
%LPD*%
G01*
G04 APERTURE LIST*
G04 Aperture macros list*
%AMRoundRect*
0 Rectangle with rounded corners*
0 $1 Rounding radius*
0 $2 $3 $4 $5 $6 $7 $8 $9 X,Y pos of 4 corners*
0 Add a 4 corners polygon primitive as box body*
4,1,4,$2,$3,$4,$5,$6,$7,$8,$9,$2,$3,0*
0 Add four circle primitives for the rounded corners*
1,1,$1+$1,$2,$3*
1,1,$1+$1,$4,$5*
1,1,$1+$1,$6,$7*
1,1,$1+$1,$8,$9*
0 Add four rect primitives between the rounded corners*
20,1,$1+$1,$2,$3,$4,$5,0*
20,1,$1+$1,$4,$5,$6,$7,0*
20,1,$1+$1,$6,$7,$8,$9,0*
20,1,$1+$1,$8,$9,$2,$3,0*%
G04 Aperture macros list end*
%ADD10C,2.200000*%
%ADD11R,1.700000X1.700000*%
%ADD12C,1.700000*%
%ADD13RoundRect,0.250000X-0.620000X-0.845000X0.620000X-0.845000X0.620000X0.845000X-0.620000X0.845000X0*%
%ADD14O,1.740000X2.190000*%
%ADD15C,1.800000*%
%ADD16C,1.727200*%
%ADD17R,1.727200X1.727200*%
G04 APERTURE END LIST*
D10*
%TO.C,U$19*%
X147000000Y-73000000D03*
%TD*%
D11*
%TO.C,JP7*%
X115540000Y-121000000D03*
D12*
X113000000Y-121000000D03*
X110460000Y-121000000D03*
%TD*%
D11*
%TO.C,JP6*%
X115540000Y-126000000D03*
D12*
X113000000Y-126000000D03*
X110460000Y-126000000D03*
%TD*%
D10*
%TO.C,U$2*%
X103000000Y-147000000D03*
%TD*%
D11*
%TO.C,JP5*%
X115540000Y-131000000D03*
D12*
X113000000Y-131000000D03*
X110460000Y-131000000D03*
%TD*%
D13*
%TO.C,J3*%
X108040000Y-145220000D03*
D14*
X110580000Y-145220000D03*
X113120000Y-145220000D03*
X115660000Y-145220000D03*
X118200000Y-145220000D03*
X120740000Y-145220000D03*
X123280000Y-145220000D03*
X125820000Y-145220000D03*
%TD*%
D10*
%TO.C,U$18*%
X103000000Y-73000000D03*
%TD*%
%TO.C,U$1*%
X147000000Y-147000000D03*
%TD*%
D11*
%TO.C,JP4*%
X115540000Y-136000000D03*
D12*
X113000000Y-136000000D03*
X110460000Y-136000000D03*
%TD*%
D15*
%TO.C,A1*%
X129000000Y-138160000D03*
X144240000Y-97520000D03*
X144240000Y-138160000D03*
X129000000Y-97520000D03*
D16*
X144240000Y-133080000D03*
X144240000Y-107680000D03*
X144240000Y-128000000D03*
X144240000Y-125460000D03*
X144240000Y-122920000D03*
X144240000Y-120380000D03*
X144240000Y-117840000D03*
X144240000Y-115300000D03*
X144240000Y-112760000D03*
X144240000Y-110220000D03*
X144240000Y-130540000D03*
X129000000Y-102600000D03*
X129000000Y-100060000D03*
X129000000Y-110220000D03*
X129000000Y-112760000D03*
X129000000Y-115300000D03*
X129000000Y-117840000D03*
X129000000Y-120380000D03*
X129000000Y-122920000D03*
X129000000Y-125460000D03*
X129000000Y-128000000D03*
X129000000Y-130540000D03*
X129000000Y-133080000D03*
X129000000Y-135620000D03*
X144240000Y-135620000D03*
D17*
X129000000Y-107680000D03*
X144240000Y-102600000D03*
D16*
X129000000Y-105140000D03*
X144240000Y-105140000D03*
X144240000Y-100060000D03*
%TD*%
M02*
