%TF.GenerationSoftware,KiCad,Pcbnew,9.0.5*%
%TF.CreationDate,2025-10-13T11:36:34+02:00*%
%TF.ProjectId,MAX31865,4d415833-3138-4363-952e-6b696361645f,rev?*%
%TF.SameCoordinates,Original*%
%TF.FileFunction,Paste,Top*%
%TF.FilePolarity,Positive*%
%FSLAX46Y46*%
G04 Gerber Fmt 4.6, Leading zero omitted, Abs format (unit mm)*
G04 Created by KiCad (PCBNEW 9.0.5) date 2025-10-13 11:36:34*
%MOMM*%
%LPD*%
G01*
G04 APERTURE LIST*
G04 Aperture macros list*
%AMRoundRect*
0 Rectangle with rounded corners*
0 $1 Rounding radius*
0 $2 $3 $4 $5 $6 $7 $8 $9 X,Y pos of 4 corners*
0 Add a 4 corners polygon primitive as box body*
4,1,4,$2,$3,$4,$5,$6,$7,$8,$9,$2,$3,0*
0 Add four circle primitives for the rounded corners*
1,1,$1+$1,$2,$3*
1,1,$1+$1,$4,$5*
1,1,$1+$1,$6,$7*
1,1,$1+$1,$8,$9*
0 Add four rect primitives between the rounded corners*
20,1,$1+$1,$2,$3,$4,$5,0*
20,1,$1+$1,$4,$5,$6,$7,0*
20,1,$1+$1,$6,$7,$8,$9,0*
20,1,$1+$1,$8,$9,$2,$3,0*%
G04 Aperture macros list end*
%ADD10RoundRect,0.120000X-0.280000X-0.279999X0.280000X-0.279999X0.280000X0.279999X-0.280000X0.279999X0*%
%ADD11RoundRect,0.250000X-0.250000X-0.475000X0.250000X-0.475000X0.250000X0.475000X-0.250000X0.475000X0*%
%ADD12RoundRect,0.100000X-0.637500X-0.100000X0.637500X-0.100000X0.637500X0.100000X-0.637500X0.100000X0*%
%ADD13R,1.450000X1.113000*%
%ADD14RoundRect,0.250000X-0.450000X0.262500X-0.450000X-0.262500X0.450000X-0.262500X0.450000X0.262500X0*%
%ADD15RoundRect,0.250000X0.262500X0.450000X-0.262500X0.450000X-0.262500X-0.450000X0.262500X-0.450000X0*%
%ADD16R,1.131400X1.131400*%
%ADD17R,0.861800X0.331800*%
%ADD18R,0.331800X0.861800*%
%ADD19R,0.672000X0.672000*%
%ADD20RoundRect,0.250000X0.250000X0.475000X-0.250000X0.475000X-0.250000X-0.475000X0.250000X-0.475000X0*%
%ADD21RoundRect,0.250000X0.450000X-0.262500X0.450000X0.262500X-0.450000X0.262500X-0.450000X-0.262500X0*%
%ADD22RoundRect,0.150000X0.150000X-0.512500X0.150000X0.512500X-0.150000X0.512500X-0.150000X-0.512500X0*%
G04 APERTURE END LIST*
D10*
%TO.C,J1*%
X124940000Y-75920000D03*
X127540000Y-75920000D03*
X124940000Y-78520000D03*
X127540000Y-78520000D03*
%TD*%
D11*
%TO.C,C1*%
X114463100Y-84587100D03*
X116363100Y-84587100D03*
%TD*%
D12*
%TO.C,U3*%
X110377500Y-108270000D03*
X110377500Y-108920000D03*
X110377500Y-109570000D03*
X110377500Y-110220000D03*
X110377500Y-110870000D03*
X110377500Y-111520000D03*
X110377500Y-112170000D03*
X116102500Y-112170000D03*
X116102500Y-111520000D03*
X116102500Y-110870000D03*
X116102500Y-110220000D03*
X116102500Y-109570000D03*
X116102500Y-108920000D03*
X116102500Y-108270000D03*
%TD*%
D13*
%TO.C,FB1*%
X126691000Y-92384000D03*
X126691000Y-94070000D03*
%TD*%
D14*
%TO.C,R2*%
X129240000Y-92307500D03*
X129240000Y-94132500D03*
%TD*%
D15*
%TO.C,R1*%
X131286500Y-87893000D03*
X129461500Y-87893000D03*
%TD*%
D16*
%TO.C,U1*%
X124240000Y-88820000D03*
X125840000Y-88820000D03*
X124240000Y-87220000D03*
X125840000Y-87220000D03*
D17*
X127365000Y-89320000D03*
X127365000Y-88670000D03*
X127365000Y-88020000D03*
X127365000Y-87370000D03*
X127365000Y-86720000D03*
D18*
X126340000Y-85695000D03*
X125690000Y-85695000D03*
X125040000Y-85695000D03*
X124390000Y-85695000D03*
X123740000Y-85695000D03*
D17*
X122715000Y-86720000D03*
X122715000Y-87370000D03*
X122715000Y-88020000D03*
X122715000Y-88670000D03*
X122715000Y-89320000D03*
D18*
X123740000Y-90345000D03*
X124390000Y-90345000D03*
X125040000Y-90345000D03*
X125690000Y-90345000D03*
X126340000Y-90345000D03*
D19*
X124240000Y-88820000D03*
X125840000Y-88820000D03*
X124240000Y-87220000D03*
X125840000Y-87220000D03*
%TD*%
D20*
%TO.C,C6*%
X113950000Y-104000000D03*
X112050000Y-104000000D03*
%TD*%
D11*
%TO.C,C5*%
X114463100Y-86873100D03*
X116363100Y-86873100D03*
%TD*%
D21*
%TO.C,R8*%
X122240000Y-94132500D03*
X122240000Y-92307500D03*
%TD*%
D22*
%TO.C,U2*%
X114390000Y-91220000D03*
X115340000Y-91220000D03*
X116290000Y-91220000D03*
X116290000Y-88945000D03*
X114390000Y-88945000D03*
%TD*%
D11*
%TO.C,C2*%
X129170000Y-90052000D03*
X131070000Y-90052000D03*
%TD*%
%TO.C,C4*%
X114390000Y-93462500D03*
X116290000Y-93462500D03*
%TD*%
D20*
%TO.C,C3*%
X126498000Y-83575000D03*
X124598000Y-83575000D03*
%TD*%
M02*
