%TF.GenerationSoftware,KiCad,Pcbnew,9.0.5*%
%TF.CreationDate,2025-10-13T11:36:34+02:00*%
%TF.ProjectId,MAX31865,4d415833-3138-4363-952e-6b696361645f,rev?*%
%TF.SameCoordinates,Original*%
%TF.FileFunction,Copper,L2,Bot*%
%TF.FilePolarity,Positive*%
%FSLAX46Y46*%
G04 Gerber Fmt 4.6, Leading zero omitted, Abs format (unit mm)*
G04 Created by KiCad (PCBNEW 9.0.5) date 2025-10-13 11:36:34*
%MOMM*%
%LPD*%
G01*
G04 APERTURE LIST*
G04 Aperture macros list*
%AMRoundRect*
0 Rectangle with rounded corners*
0 $1 Rounding radius*
0 $2 $3 $4 $5 $6 $7 $8 $9 X,Y pos of 4 corners*
0 Add a 4 corners polygon primitive as box body*
4,1,4,$2,$3,$4,$5,$6,$7,$8,$9,$2,$3,0*
0 Add four circle primitives for the rounded corners*
1,1,$1+$1,$2,$3*
1,1,$1+$1,$4,$5*
1,1,$1+$1,$6,$7*
1,1,$1+$1,$8,$9*
0 Add four rect primitives between the rounded corners*
20,1,$1+$1,$2,$3,$4,$5,0*
20,1,$1+$1,$4,$5,$6,$7,0*
20,1,$1+$1,$6,$7,$8,$9,0*
20,1,$1+$1,$8,$9,$2,$3,0*%
G04 Aperture macros list end*
%TA.AperFunction,ComponentPad*%
%ADD10R,1.700000X1.700000*%
%TD*%
%TA.AperFunction,ComponentPad*%
%ADD11C,1.700000*%
%TD*%
%TA.AperFunction,ComponentPad*%
%ADD12RoundRect,0.250000X-0.620000X-0.845000X0.620000X-0.845000X0.620000X0.845000X-0.620000X0.845000X0*%
%TD*%
%TA.AperFunction,ComponentPad*%
%ADD13O,1.740000X2.190000*%
%TD*%
%TA.AperFunction,ComponentPad*%
%ADD14C,1.727200*%
%TD*%
%TA.AperFunction,ComponentPad*%
%ADD15R,1.727200X1.727200*%
%TD*%
%TA.AperFunction,ViaPad*%
%ADD16C,0.600000*%
%TD*%
%TA.AperFunction,ViaPad*%
%ADD17C,0.906400*%
%TD*%
%TA.AperFunction,Conductor*%
%ADD18C,0.200000*%
%TD*%
G04 APERTURE END LIST*
D10*
%TO.P,JP7,1,A*%
%TO.N,/DRDY*%
X115540000Y-121000000D03*
D11*
%TO.P,JP7,2,C*%
%TO.N,/DRDY_JP*%
X113000000Y-121000000D03*
%TO.P,JP7,3,B*%
%TO.N,/DRDY_EXT*%
X110460000Y-121000000D03*
%TD*%
D10*
%TO.P,JP6,1,A*%
%TO.N,/CS_5V*%
X115540000Y-126000000D03*
D11*
%TO.P,JP6,2,C*%
%TO.N,/CS_JP*%
X113000000Y-126000000D03*
%TO.P,JP6,3,B*%
%TO.N,/CS_EXT*%
X110460000Y-126000000D03*
%TD*%
D10*
%TO.P,JP5,1,A*%
%TO.N,/MOSI_5V*%
X115540000Y-131000000D03*
D11*
%TO.P,JP5,2,C*%
%TO.N,/MOSI_JP*%
X113000000Y-131000000D03*
%TO.P,JP5,3,B*%
%TO.N,/MOSI_EXT*%
X110460000Y-131000000D03*
%TD*%
D12*
%TO.P,J3,1,Pin_1*%
%TO.N,5V*%
X108040000Y-145220000D03*
D13*
%TO.P,J3,2,Pin_2*%
%TO.N,GND*%
X110580000Y-145220000D03*
%TO.P,J3,3,Pin_3*%
%TO.N,/SCK_EXT*%
X113120000Y-145220000D03*
%TO.P,J3,4,Pin_4*%
%TO.N,/MOSI_EXT*%
X115660000Y-145220000D03*
%TO.P,J3,5,Pin_5*%
%TO.N,/SDO*%
X118200000Y-145220000D03*
%TO.P,J3,6,Pin_6*%
%TO.N,/CS_EXT*%
X120740000Y-145220000D03*
%TO.P,J3,7,Pin_7*%
%TO.N,/DRDY_EXT*%
X123280000Y-145220000D03*
%TO.P,J3,8,Pin_8*%
%TO.N,unconnected-(J3-Pin_8-Pad8)*%
X125820000Y-145220000D03*
%TD*%
D10*
%TO.P,JP4,1,A*%
%TO.N,/SCK_5V*%
X115540000Y-136000000D03*
D11*
%TO.P,JP4,2,C*%
%TO.N,/SCK_JP*%
X113000000Y-136000000D03*
%TO.P,JP4,3,B*%
%TO.N,/SCK_EXT*%
X110460000Y-136000000D03*
%TD*%
D14*
%TO.P,A1,3V3,3.3V*%
%TO.N,unconnected-(A1-3.3V-Pad3V3)*%
X144240000Y-133080000D03*
%TO.P,A1,5V,5V*%
%TO.N,5V*%
X144240000Y-107680000D03*
%TO.P,A1,A0,A0*%
%TO.N,unconnected-(A1-PadA0)*%
X144240000Y-128000000D03*
%TO.P,A1,A1,A1*%
%TO.N,unconnected-(A1-PadA1)*%
X144240000Y-125460000D03*
%TO.P,A1,A2,A2*%
%TO.N,unconnected-(A1-PadA2)*%
X144240000Y-122920000D03*
%TO.P,A1,A3,A3*%
%TO.N,unconnected-(A1-PadA3)*%
X144240000Y-120380000D03*
%TO.P,A1,A4,A4/SDA*%
%TO.N,unconnected-(A1-A4{slash}SDA-PadA4)*%
X144240000Y-117840000D03*
%TO.P,A1,A5,A5/SCL*%
%TO.N,unconnected-(A1-A5{slash}SCL-PadA5)*%
X144240000Y-115300000D03*
%TO.P,A1,A6,A6*%
%TO.N,unconnected-(A1-PadA6)*%
X144240000Y-112760000D03*
%TO.P,A1,A7,A7*%
%TO.N,unconnected-(A1-PadA7)*%
X144240000Y-110220000D03*
%TO.P,A1,AREF,AREF*%
%TO.N,unconnected-(A1-PadAREF)*%
X144240000Y-130540000D03*
%TO.P,A1,D0,D0/RX*%
%TO.N,unconnected-(A1-D0{slash}RX-PadD0)*%
X129000000Y-102600000D03*
%TO.P,A1,D1,D1/TX*%
%TO.N,unconnected-(A1-D1{slash}TX-PadD1)*%
X129000000Y-100060000D03*
%TO.P,A1,D2,D2_INT0*%
%TO.N,/DRDY*%
X129000000Y-110220000D03*
%TO.P,A1,D3,D3_INT1*%
%TO.N,unconnected-(A1-D3_INT1-PadD3)*%
X129000000Y-112760000D03*
%TO.P,A1,D4,D4*%
%TO.N,unconnected-(A1-PadD4)*%
X129000000Y-115300000D03*
%TO.P,A1,D5,D5*%
%TO.N,unconnected-(A1-PadD5)*%
X129000000Y-117840000D03*
%TO.P,A1,D6,D6*%
%TO.N,unconnected-(A1-PadD6)*%
X129000000Y-120380000D03*
%TO.P,A1,D7,D7*%
%TO.N,unconnected-(A1-PadD7)*%
X129000000Y-122920000D03*
%TO.P,A1,D8,D8*%
%TO.N,unconnected-(A1-PadD8)*%
X129000000Y-125460000D03*
%TO.P,A1,D9,D9*%
%TO.N,unconnected-(A1-PadD9)*%
X129000000Y-128000000D03*
%TO.P,A1,D10,D10*%
%TO.N,/CS_5V*%
X129000000Y-130540000D03*
%TO.P,A1,D11,D11_MOSI*%
%TO.N,/MOSI_5V*%
X129000000Y-133080000D03*
%TO.P,A1,D12,D12_MISO*%
%TO.N,/SDO*%
X129000000Y-135620000D03*
%TO.P,A1,D13,D13_SCK*%
%TO.N,/SCK_5V*%
X144240000Y-135620000D03*
D15*
%TO.P,A1,GND1,GND*%
%TO.N,GND*%
X129000000Y-107680000D03*
%TO.P,A1,GND2,GND*%
X144240000Y-102600000D03*
D14*
%TO.P,A1,RST1,RESET*%
%TO.N,unconnected-(A1-RESET-PadRST1)*%
X129000000Y-105140000D03*
%TO.P,A1,RST2,RESET*%
%TO.N,unconnected-(A1-RESET-PadRST2)*%
X144240000Y-105140000D03*
%TO.P,A1,VIN,VIN*%
%TO.N,unconnected-(A1-PadVIN)*%
X144240000Y-100060000D03*
%TD*%
D16*
%TO.N,GND*%
X124800000Y-82200000D03*
X118300000Y-104900000D03*
X121600000Y-97200000D03*
X112300000Y-143200000D03*
X113000000Y-123600000D03*
%TO.N,/DRDY_JP*%
X119400000Y-98000000D03*
X117000000Y-100000000D03*
X123995319Y-93168200D03*
%TO.N,/CS_JP*%
X114000000Y-112000000D03*
%TO.N,/MOSI_JP*%
X116000000Y-115000000D03*
%TO.N,/SCK_JP*%
X107000000Y-113000000D03*
%TO.N,/SCK_5V*%
X124000000Y-136000000D03*
%TO.N,/SCLK*%
X111817499Y-110817499D03*
X121000000Y-88000000D03*
%TO.N,/SDO*%
X121000000Y-89000000D03*
X122000000Y-96000000D03*
%TO.N,GND*%
X114000000Y-141000000D03*
%TO.N,/SDO*%
X126000000Y-136000000D03*
%TO.N,GND*%
X122200000Y-134300000D03*
X136000000Y-100000000D03*
X126240000Y-75220000D03*
X120400000Y-84600000D03*
%TO.N,/SDI*%
X110240000Y-102220000D03*
%TO.N,GND*%
X132106900Y-90047400D03*
X103000000Y-130000000D03*
%TO.N,/CS*%
X121240000Y-95220000D03*
%TO.N,GND*%
X111240000Y-90220000D03*
%TO.N,5V*%
X105000000Y-136280000D03*
%TO.N,/CS*%
X121931369Y-88149724D03*
D17*
%TO.N,GND*%
X122216900Y-90447400D03*
D16*
%TO.N,5V*%
X110240000Y-94220000D03*
%TO.N,/DRDY_JP*%
X128240000Y-91220000D03*
%TO.N,GND*%
X128240000Y-83220000D03*
%TO.N,/DRDY_JP*%
X124240000Y-91275902D03*
%TO.N,GND*%
X122000000Y-122200000D03*
X116360000Y-83302500D03*
%TO.N,/SDI*%
X120000000Y-87000000D03*
%TD*%
D18*
%TO.N,5V*%
X105000000Y-99460000D02*
X110240000Y-94220000D01*
X105000000Y-136280000D02*
X105000000Y-99460000D01*
%TO.N,/DRDY_JP*%
X123995319Y-91520583D02*
X124240000Y-91275902D01*
X123995319Y-93168200D02*
X123995319Y-91520583D01*
X119400000Y-98600000D02*
X119400000Y-98000000D01*
X118000000Y-100000000D02*
X119400000Y-98600000D01*
X117000000Y-100000000D02*
X118000000Y-100000000D01*
%TO.N,/CS_JP*%
X111849000Y-114151000D02*
X114000000Y-112000000D01*
X111849000Y-124849000D02*
X111849000Y-114151000D01*
X113000000Y-126000000D02*
X111849000Y-124849000D01*
%TO.N,/MOSI_JP*%
X114151000Y-116849000D02*
X116000000Y-115000000D01*
X114151000Y-129849000D02*
X114151000Y-116849000D01*
X113000000Y-131000000D02*
X114151000Y-129849000D01*
%TO.N,/SCK_JP*%
X107000000Y-130000000D02*
X107000000Y-113000000D01*
X113000000Y-136000000D02*
X107000000Y-130000000D01*
%TO.N,/DRDY*%
X118220000Y-121000000D02*
X129000000Y-110220000D01*
X115540000Y-121000000D02*
X118220000Y-121000000D01*
%TO.N,/CS_5V*%
X129000000Y-130540000D02*
X120080000Y-130540000D01*
X120080000Y-130540000D02*
X115540000Y-126000000D01*
%TO.N,/MOSI_5V*%
X117620000Y-133080000D02*
X115540000Y-131000000D01*
X129000000Y-133080000D02*
X117620000Y-133080000D01*
%TO.N,/SCK_5V*%
X124000000Y-136000000D02*
X115540000Y-136000000D01*
%TO.N,/SCLK*%
X121000000Y-88027100D02*
X121000000Y-88000000D01*
X111817499Y-108182501D02*
X120000000Y-100000000D01*
X120000000Y-100000000D02*
X120000000Y-89027100D01*
X111817499Y-110817499D02*
X111817499Y-108182501D01*
X120000000Y-89027100D02*
X121000000Y-88027100D01*
%TO.N,/SDO*%
X120639000Y-95468943D02*
X120639000Y-89361000D01*
X122000000Y-96000000D02*
X121170057Y-96000000D01*
X120639000Y-89361000D02*
X121000000Y-89000000D01*
X121170057Y-96000000D02*
X120639000Y-95468943D01*
X118200000Y-143800000D02*
X126000000Y-136000000D01*
X118200000Y-145220000D02*
X118200000Y-143800000D01*
%TO.N,/SDI*%
X113240000Y-102220000D02*
X110240000Y-102220000D01*
X119240000Y-89220000D02*
X119240000Y-96220000D01*
X119240000Y-96220000D02*
X113240000Y-102220000D01*
X120000000Y-87000000D02*
X120000000Y-88460000D01*
X120000000Y-88460000D02*
X119240000Y-89220000D01*
%TO.N,/CS*%
X121462700Y-90135000D02*
X121839000Y-89758700D01*
X121462700Y-90759800D02*
X121462700Y-90135000D01*
X121839000Y-89758700D02*
X121839000Y-88524936D01*
X121839000Y-91136100D02*
X121462700Y-90759800D01*
%TO.N,/DRDY_JP*%
X128184098Y-91275902D02*
X124240000Y-91275902D01*
%TO.N,/CS*%
X122072790Y-88291145D02*
X121931369Y-88149724D01*
X121839000Y-94621000D02*
X121839000Y-91136100D01*
X121240000Y-95220000D02*
X121839000Y-94621000D01*
%TO.N,/DRDY_JP*%
X128240000Y-91220000D02*
X128184098Y-91275902D01*
%TO.N,/CS*%
X121839000Y-88524936D02*
X122072790Y-88291145D01*
%TD*%
%TA.AperFunction,Conductor*%
%TO.N,GND*%
G36*
X112302736Y-121858644D02*
G01*
X112421116Y-121944653D01*
X112576019Y-122023580D01*
X112741362Y-122077303D01*
X112913074Y-122104500D01*
X112913076Y-122104500D01*
X113086924Y-122104500D01*
X113086926Y-122104500D01*
X113258638Y-122077303D01*
X113423981Y-122023580D01*
X113578884Y-121944653D01*
X113697263Y-121858644D01*
X113743777Y-121847477D01*
X113784563Y-121872471D01*
X113796500Y-121909208D01*
X113796500Y-125090791D01*
X113778194Y-125134985D01*
X113734000Y-125153291D01*
X113697263Y-125141355D01*
X113578884Y-125055347D01*
X113439100Y-124984123D01*
X113423987Y-124976423D01*
X113423979Y-124976419D01*
X113258636Y-124922696D01*
X113258637Y-124922696D01*
X113086937Y-124895501D01*
X113086927Y-124895500D01*
X113086926Y-124895500D01*
X112913074Y-124895500D01*
X112913072Y-124895500D01*
X112913062Y-124895501D01*
X112741362Y-124922696D01*
X112576020Y-124976419D01*
X112576016Y-124976421D01*
X112551383Y-124988972D01*
X112503695Y-124992723D01*
X112478816Y-124977477D01*
X112221806Y-124720467D01*
X112203500Y-124676273D01*
X112203500Y-121909208D01*
X112221806Y-121865014D01*
X112266000Y-121846708D01*
X112302736Y-121858644D01*
G37*
%TD.AperFunction*%
%TA.AperFunction,Conductor*%
G36*
X148002223Y-70500659D02*
G01*
X148208943Y-70515444D01*
X148217768Y-70516713D01*
X148418095Y-70560290D01*
X148426646Y-70562802D01*
X148618732Y-70634447D01*
X148626830Y-70638145D01*
X148747496Y-70704033D01*
X148806766Y-70736397D01*
X148814268Y-70741218D01*
X148978388Y-70864077D01*
X148985127Y-70869917D01*
X149130082Y-71014872D01*
X149135922Y-71021611D01*
X149258781Y-71185731D01*
X149263602Y-71193233D01*
X149361851Y-71373162D01*
X149365555Y-71381273D01*
X149437196Y-71573350D01*
X149439709Y-71581907D01*
X149483286Y-71782231D01*
X149484555Y-71791057D01*
X149499341Y-71997776D01*
X149499500Y-72002235D01*
X149499500Y-147497956D01*
X149499366Y-147502044D01*
X149482661Y-147756899D01*
X149481594Y-147765004D01*
X149432168Y-148013491D01*
X149430052Y-148021388D01*
X149348614Y-148261293D01*
X149345486Y-148268846D01*
X149233428Y-148496078D01*
X149229340Y-148503158D01*
X149088585Y-148713812D01*
X149083608Y-148720298D01*
X148916561Y-148910780D01*
X148910780Y-148916561D01*
X148720298Y-149083608D01*
X148713812Y-149088585D01*
X148503158Y-149229340D01*
X148496078Y-149233428D01*
X148268846Y-149345486D01*
X148261293Y-149348614D01*
X148021388Y-149430052D01*
X148013491Y-149432168D01*
X147765004Y-149481594D01*
X147756899Y-149482661D01*
X147502044Y-149499366D01*
X147497956Y-149499500D01*
X102502044Y-149499500D01*
X102497956Y-149499366D01*
X102243100Y-149482661D01*
X102234995Y-149481594D01*
X101986508Y-149432168D01*
X101978611Y-149430052D01*
X101738706Y-149348614D01*
X101731153Y-149345486D01*
X101503921Y-149233428D01*
X101496841Y-149229340D01*
X101286187Y-149088585D01*
X101279701Y-149083608D01*
X101270179Y-149075257D01*
X101089212Y-148916554D01*
X101083445Y-148910787D01*
X100916390Y-148720297D01*
X100911414Y-148713812D01*
X100770659Y-148503158D01*
X100766571Y-148496078D01*
X100654513Y-148268846D01*
X100651385Y-148261293D01*
X100572906Y-148030104D01*
X100569944Y-148021377D01*
X100567834Y-148013502D01*
X100518404Y-147765003D01*
X100517338Y-147756899D01*
X100500634Y-147502044D01*
X100500500Y-147497956D01*
X100500500Y-146893715D01*
X101649500Y-146893715D01*
X101649500Y-147106284D01*
X101649501Y-147106300D01*
X101682753Y-147316240D01*
X101682753Y-147316241D01*
X101748442Y-147518410D01*
X101748446Y-147518418D01*
X101844949Y-147707817D01*
X101969897Y-147879794D01*
X102120205Y-148030102D01*
X102292182Y-148155050D01*
X102292184Y-148155051D01*
X102481588Y-148251557D01*
X102683757Y-148317246D01*
X102772244Y-148331261D01*
X102893699Y-148350498D01*
X102893705Y-148350498D01*
X102893713Y-148350500D01*
X102893715Y-148350500D01*
X103106285Y-148350500D01*
X103106287Y-148350500D01*
X103316243Y-148317246D01*
X103518412Y-148251557D01*
X103707816Y-148155051D01*
X103879792Y-148030104D01*
X104030104Y-147879792D01*
X104155051Y-147707816D01*
X104251557Y-147518412D01*
X104317246Y-147316243D01*
X104350500Y-147106287D01*
X104350500Y-146893715D01*
X145649500Y-146893715D01*
X145649500Y-147106284D01*
X145649501Y-147106300D01*
X145682753Y-147316240D01*
X145682753Y-147316241D01*
X145748442Y-147518410D01*
X145748446Y-147518418D01*
X145844949Y-147707817D01*
X145969897Y-147879794D01*
X146120205Y-148030102D01*
X146292182Y-148155050D01*
X146292184Y-148155051D01*
X146481588Y-148251557D01*
X146683757Y-148317246D01*
X146772244Y-148331261D01*
X146893699Y-148350498D01*
X146893705Y-148350498D01*
X146893713Y-148350500D01*
X146893715Y-148350500D01*
X147106285Y-148350500D01*
X147106287Y-148350500D01*
X147316243Y-148317246D01*
X147518412Y-148251557D01*
X147707816Y-148155051D01*
X147879792Y-148030104D01*
X148030104Y-147879792D01*
X148155051Y-147707816D01*
X148251557Y-147518412D01*
X148317246Y-147316243D01*
X148350500Y-147106287D01*
X148350500Y-146893713D01*
X148317246Y-146683757D01*
X148251557Y-146481588D01*
X148155051Y-146292184D01*
X148095208Y-146209817D01*
X148030102Y-146120205D01*
X147879794Y-145969897D01*
X147707817Y-145844949D01*
X147518418Y-145748446D01*
X147518410Y-145748442D01*
X147316241Y-145682753D01*
X147106300Y-145649501D01*
X147106288Y-145649500D01*
X147106287Y-145649500D01*
X146893713Y-145649500D01*
X146893711Y-145649500D01*
X146893699Y-145649501D01*
X146683759Y-145682753D01*
X146683758Y-145682753D01*
X146481589Y-145748442D01*
X146481581Y-145748446D01*
X146292182Y-145844949D01*
X146120205Y-145969897D01*
X145969897Y-146120205D01*
X145844949Y-146292182D01*
X145748446Y-146481581D01*
X145748442Y-146481589D01*
X145682753Y-146683758D01*
X145682753Y-146683759D01*
X145649501Y-146893699D01*
X145649500Y-146893715D01*
X104350500Y-146893715D01*
X104350500Y-146893713D01*
X104317246Y-146683757D01*
X104251557Y-146481588D01*
X104155051Y-146292184D01*
X104095208Y-146209817D01*
X104030102Y-146120205D01*
X103879794Y-145969897D01*
X103707817Y-145844949D01*
X103518418Y-145748446D01*
X103518410Y-145748442D01*
X103316241Y-145682753D01*
X103106300Y-145649501D01*
X103106288Y-145649500D01*
X103106287Y-145649500D01*
X102893713Y-145649500D01*
X102893711Y-145649500D01*
X102893699Y-145649501D01*
X102683759Y-145682753D01*
X102683758Y-145682753D01*
X102481589Y-145748442D01*
X102481581Y-145748446D01*
X102292182Y-145844949D01*
X102120205Y-145969897D01*
X101969897Y-146120205D01*
X101844949Y-146292182D01*
X101748446Y-146481581D01*
X101748442Y-146481589D01*
X101682753Y-146683758D01*
X101682753Y-146683759D01*
X101649501Y-146893699D01*
X101649500Y-146893715D01*
X100500500Y-146893715D01*
X100500500Y-144326737D01*
X106915500Y-144326737D01*
X106915500Y-146113246D01*
X106915501Y-146113263D01*
X106921960Y-146173343D01*
X106972656Y-146309263D01*
X106972657Y-146309265D01*
X106972658Y-146309267D01*
X107059596Y-146425404D01*
X107175733Y-146512342D01*
X107311658Y-146563040D01*
X107371745Y-146569500D01*
X108708254Y-146569499D01*
X108768342Y-146563040D01*
X108904267Y-146512342D01*
X109020404Y-146425404D01*
X109107342Y-146309267D01*
X109158040Y-146173342D01*
X109164500Y-146113255D01*
X109164499Y-144902606D01*
X109406000Y-144902606D01*
X109406000Y-145068000D01*
X110004739Y-145068000D01*
X109985000Y-145141667D01*
X109985000Y-145298333D01*
X110004739Y-145372000D01*
X109406000Y-145372000D01*
X109406000Y-145537393D01*
X109406001Y-145537409D01*
X109434907Y-145719909D01*
X109434907Y-145719910D01*
X109492011Y-145895657D01*
X109492015Y-145895665D01*
X109575904Y-146060307D01*
X109684529Y-146209817D01*
X109815182Y-146340470D01*
X109964692Y-146449095D01*
X110129334Y-146532984D01*
X110129342Y-146532988D01*
X110305082Y-146590090D01*
X110428000Y-146609558D01*
X110428000Y-145795261D01*
X110501667Y-145815000D01*
X110658333Y-145815000D01*
X110732000Y-145795261D01*
X110732000Y-146609558D01*
X110854917Y-146590090D01*
X111030657Y-146532988D01*
X111030665Y-146532984D01*
X111195307Y-146449095D01*
X111344817Y-146340470D01*
X111475470Y-146209817D01*
X111584095Y-146060307D01*
X111667984Y-145895665D01*
X111667988Y-145895657D01*
X111725092Y-145719910D01*
X111725092Y-145719909D01*
X111753998Y-145537409D01*
X111754000Y-145537393D01*
X111754000Y-145372000D01*
X111155261Y-145372000D01*
X111175000Y-145298333D01*
X111175000Y-145141667D01*
X111155261Y-145068000D01*
X111754000Y-145068000D01*
X111754000Y-144906502D01*
X111995500Y-144906502D01*
X111995500Y-145533497D01*
X111995501Y-145533513D01*
X112023188Y-145708318D01*
X112023188Y-145708319D01*
X112077885Y-145876659D01*
X112077886Y-145876661D01*
X112158243Y-146034368D01*
X112262279Y-146177561D01*
X112262286Y-146177569D01*
X112387430Y-146302713D01*
X112387438Y-146302720D01*
X112530634Y-146406758D01*
X112688342Y-146487115D01*
X112856679Y-146541811D01*
X112930359Y-146553480D01*
X113031486Y-146569498D01*
X113031492Y-146569498D01*
X113031500Y-146569500D01*
X113031502Y-146569500D01*
X113208498Y-146569500D01*
X113208500Y-146569500D01*
X113383321Y-146541811D01*
X113551658Y-146487115D01*
X113709366Y-146406758D01*
X113852562Y-146302720D01*
X113977720Y-146177562D01*
X114081758Y-146034366D01*
X114162115Y-145876658D01*
X114216811Y-145708321D01*
X114244500Y-145533500D01*
X114244500Y-144906502D01*
X114535500Y-144906502D01*
X114535500Y-145533497D01*
X114535501Y-145533513D01*
X114563188Y-145708318D01*
X114563188Y-145708319D01*
X114617885Y-145876659D01*
X114617886Y-145876661D01*
X114698243Y-146034368D01*
X114802279Y-146177561D01*
X114802286Y-146177569D01*
X114927430Y-146302713D01*
X114927438Y-146302720D01*
X115070634Y-146406758D01*
X115228342Y-146487115D01*
X115396679Y-146541811D01*
X115470359Y-146553480D01*
X115571486Y-146569498D01*
X115571492Y-146569498D01*
X115571500Y-146569500D01*
X115571502Y-146569500D01*
X115748498Y-146569500D01*
X115748500Y-146569500D01*
X115923321Y-146541811D01*
X116091658Y-146487115D01*
X116249366Y-146406758D01*
X116392562Y-146302720D01*
X116517720Y-146177562D01*
X116621758Y-146034366D01*
X116702115Y-145876658D01*
X116756811Y-145708321D01*
X116784500Y-145533500D01*
X116784500Y-144906502D01*
X117075500Y-144906502D01*
X117075500Y-145533497D01*
X117075501Y-145533513D01*
X117103188Y-145708318D01*
X117103188Y-145708319D01*
X117157885Y-145876659D01*
X117157886Y-145876661D01*
X117238243Y-146034368D01*
X117342279Y-146177561D01*
X117342286Y-146177569D01*
X117467430Y-146302713D01*
X117467438Y-146302720D01*
X117610634Y-146406758D01*
X117768342Y-146487115D01*
X117936679Y-146541811D01*
X118010359Y-146553480D01*
X118111486Y-146569498D01*
X118111492Y-146569498D01*
X118111500Y-146569500D01*
X118111502Y-146569500D01*
X118288498Y-146569500D01*
X118288500Y-146569500D01*
X118463321Y-146541811D01*
X118631658Y-146487115D01*
X118789366Y-146406758D01*
X118932562Y-146302720D01*
X119057720Y-146177562D01*
X119161758Y-146034366D01*
X119242115Y-145876658D01*
X119296811Y-145708321D01*
X119324500Y-145533500D01*
X119324500Y-144906502D01*
X119615500Y-144906502D01*
X119615500Y-145533497D01*
X119615501Y-145533513D01*
X119643188Y-145708318D01*
X119643188Y-145708319D01*
X119697885Y-145876659D01*
X119697886Y-145876661D01*
X119778243Y-146034368D01*
X119882279Y-146177561D01*
X119882286Y-146177569D01*
X120007430Y-146302713D01*
X120007438Y-146302720D01*
X120150634Y-146406758D01*
X120308342Y-146487115D01*
X120476679Y-146541811D01*
X120550359Y-146553480D01*
X120651486Y-146569498D01*
X120651492Y-146569498D01*
X120651500Y-146569500D01*
X120651502Y-146569500D01*
X120828498Y-146569500D01*
X120828500Y-146569500D01*
X121003321Y-146541811D01*
X121171658Y-146487115D01*
X121329366Y-146406758D01*
X121472562Y-146302720D01*
X121597720Y-146177562D01*
X121701758Y-146034366D01*
X121782115Y-145876658D01*
X121836811Y-145708321D01*
X121864500Y-145533500D01*
X121864500Y-144906502D01*
X122155500Y-144906502D01*
X122155500Y-145533497D01*
X122155501Y-145533513D01*
X122183188Y-145708318D01*
X122183188Y-145708319D01*
X122237885Y-145876659D01*
X122237886Y-145876661D01*
X122318243Y-146034368D01*
X122422279Y-146177561D01*
X122422286Y-146177569D01*
X122547430Y-146302713D01*
X122547438Y-146302720D01*
X122690634Y-146406758D01*
X122848342Y-146487115D01*
X123016679Y-146541811D01*
X123090359Y-146553480D01*
X123191486Y-146569498D01*
X123191492Y-146569498D01*
X123191500Y-146569500D01*
X123191502Y-146569500D01*
X123368498Y-146569500D01*
X123368500Y-146569500D01*
X123543321Y-146541811D01*
X123711658Y-146487115D01*
X123869366Y-146406758D01*
X124012562Y-146302720D01*
X124137720Y-146177562D01*
X124241758Y-146034366D01*
X124322115Y-145876658D01*
X124376811Y-145708321D01*
X124404500Y-145533500D01*
X124404500Y-144906502D01*
X124695500Y-144906502D01*
X124695500Y-145533497D01*
X124695501Y-145533513D01*
X124723188Y-145708318D01*
X124723188Y-145708319D01*
X124777885Y-145876659D01*
X124777886Y-145876661D01*
X124858243Y-146034368D01*
X124962279Y-146177561D01*
X124962286Y-146177569D01*
X125087430Y-146302713D01*
X125087438Y-146302720D01*
X125230634Y-146406758D01*
X125388342Y-146487115D01*
X125556679Y-146541811D01*
X125630359Y-146553480D01*
X125731486Y-146569498D01*
X125731492Y-146569498D01*
X125731500Y-146569500D01*
X125731502Y-146569500D01*
X125908498Y-146569500D01*
X125908500Y-146569500D01*
X126083321Y-146541811D01*
X126251658Y-146487115D01*
X126409366Y-146406758D01*
X126552562Y-146302720D01*
X126677720Y-146177562D01*
X126781758Y-146034366D01*
X126862115Y-145876658D01*
X126916811Y-145708321D01*
X126944500Y-145533500D01*
X126944500Y-144906500D01*
X126916811Y-144731679D01*
X126862115Y-144563342D01*
X126781758Y-144405634D01*
X126677720Y-144262438D01*
X126677713Y-144262430D01*
X126552569Y-144137286D01*
X126552561Y-144137279D01*
X126409368Y-144033243D01*
X126251661Y-143952886D01*
X126251659Y-143952885D01*
X126083319Y-143898188D01*
X125908513Y-143870501D01*
X125908501Y-143870500D01*
X125908500Y-143870500D01*
X125731500Y-143870500D01*
X125731498Y-143870500D01*
X125731486Y-143870501D01*
X125556681Y-143898188D01*
X125556680Y-143898188D01*
X125388340Y-143952885D01*
X125388338Y-143952886D01*
X125230631Y-144033243D01*
X125087438Y-144137279D01*
X125087430Y-144137286D01*
X124962286Y-144262430D01*
X124962279Y-144262438D01*
X124858243Y-144405631D01*
X124777886Y-144563338D01*
X124777885Y-144563340D01*
X124723188Y-144731680D01*
X124723188Y-144731681D01*
X124695501Y-144906486D01*
X124695500Y-144906502D01*
X124404500Y-144906502D01*
X124404500Y-144906500D01*
X124376811Y-144731679D01*
X124322115Y-144563342D01*
X124241758Y-144405634D01*
X124137720Y-144262438D01*
X124137713Y-144262430D01*
X124012569Y-144137286D01*
X124012561Y-144137279D01*
X123869368Y-144033243D01*
X123711661Y-143952886D01*
X123711659Y-143952885D01*
X123543319Y-143898188D01*
X123368513Y-143870501D01*
X123368501Y-143870500D01*
X123368500Y-143870500D01*
X123191500Y-143870500D01*
X123191498Y-143870500D01*
X123191486Y-143870501D01*
X123016681Y-143898188D01*
X123016680Y-143898188D01*
X122848340Y-143952885D01*
X122848338Y-143952886D01*
X122690631Y-144033243D01*
X122547438Y-144137279D01*
X122547430Y-144137286D01*
X122422286Y-144262430D01*
X122422279Y-144262438D01*
X122318243Y-144405631D01*
X122237886Y-144563338D01*
X122237885Y-144563340D01*
X122183188Y-144731680D01*
X122183188Y-144731681D01*
X122155501Y-144906486D01*
X122155500Y-144906502D01*
X121864500Y-144906502D01*
X121864500Y-144906500D01*
X121836811Y-144731679D01*
X121782115Y-144563342D01*
X121701758Y-144405634D01*
X121597720Y-144262438D01*
X121597713Y-144262430D01*
X121472569Y-144137286D01*
X121472561Y-144137279D01*
X121329368Y-144033243D01*
X121171661Y-143952886D01*
X121171659Y-143952885D01*
X121003319Y-143898188D01*
X120828513Y-143870501D01*
X120828501Y-143870500D01*
X120828500Y-143870500D01*
X120651500Y-143870500D01*
X120651498Y-143870500D01*
X120651486Y-143870501D01*
X120476681Y-143898188D01*
X120476680Y-143898188D01*
X120308340Y-143952885D01*
X120308338Y-143952886D01*
X120150631Y-144033243D01*
X120007438Y-144137279D01*
X120007430Y-144137286D01*
X119882286Y-144262430D01*
X119882279Y-144262438D01*
X119778243Y-144405631D01*
X119697886Y-144563338D01*
X119697885Y-144563340D01*
X119643188Y-144731680D01*
X119643188Y-144731681D01*
X119615501Y-144906486D01*
X119615500Y-144906502D01*
X119324500Y-144906502D01*
X119324500Y-144906500D01*
X119296811Y-144731679D01*
X119242115Y-144563342D01*
X119161758Y-144405634D01*
X119057720Y-144262438D01*
X119057713Y-144262430D01*
X118932569Y-144137286D01*
X118932561Y-144137279D01*
X118789368Y-144033243D01*
X118653185Y-143963853D01*
X118622119Y-143927478D01*
X118625872Y-143879790D01*
X118637363Y-143863974D01*
X124431883Y-138069456D01*
X127849500Y-138069456D01*
X127849500Y-138250543D01*
X127849501Y-138250559D01*
X127877828Y-138429403D01*
X127877831Y-138429416D01*
X127933787Y-138601633D01*
X127933789Y-138601640D01*
X128016004Y-138762994D01*
X128122447Y-138909501D01*
X128122450Y-138909504D01*
X128122453Y-138909508D01*
X128250491Y-139037546D01*
X128250494Y-139037548D01*
X128250499Y-139037553D01*
X128397006Y-139143996D01*
X128558361Y-139226211D01*
X128730591Y-139282171D01*
X128870922Y-139304397D01*
X128909440Y-139310498D01*
X128909446Y-139310498D01*
X128909454Y-139310500D01*
X128909456Y-139310500D01*
X129090544Y-139310500D01*
X129090546Y-139310500D01*
X129269409Y-139282171D01*
X129441639Y-139226211D01*
X129602994Y-139143996D01*
X129749501Y-139037553D01*
X129877553Y-138909501D01*
X129983996Y-138762994D01*
X130066211Y-138601639D01*
X130122171Y-138429409D01*
X130150500Y-138250546D01*
X130150500Y-138069456D01*
X143089500Y-138069456D01*
X143089500Y-138250543D01*
X143089501Y-138250559D01*
X143117828Y-138429403D01*
X143117831Y-138429416D01*
X143173787Y-138601633D01*
X143173789Y-138601640D01*
X143256004Y-138762994D01*
X143362447Y-138909501D01*
X143362450Y-138909504D01*
X143362453Y-138909508D01*
X143490491Y-139037546D01*
X143490494Y-139037548D01*
X143490499Y-139037553D01*
X143637006Y-139143996D01*
X143798361Y-139226211D01*
X143970591Y-139282171D01*
X144110922Y-139304397D01*
X144149440Y-139310498D01*
X144149446Y-139310498D01*
X144149454Y-139310500D01*
X144149456Y-139310500D01*
X144330544Y-139310500D01*
X144330546Y-139310500D01*
X144509409Y-139282171D01*
X144681639Y-139226211D01*
X144842994Y-139143996D01*
X144989501Y-139037553D01*
X145117553Y-138909501D01*
X145223996Y-138762994D01*
X145306211Y-138601639D01*
X145362171Y-138429409D01*
X145390500Y-138250546D01*
X145390500Y-138069454D01*
X145362171Y-137890591D01*
X145306211Y-137718361D01*
X145223996Y-137557006D01*
X145117553Y-137410499D01*
X145117548Y-137410494D01*
X145117546Y-137410491D01*
X144989508Y-137282453D01*
X144989504Y-137282450D01*
X144989501Y-137282447D01*
X144842994Y-137176004D01*
X144681640Y-137093789D01*
X144681633Y-137093787D01*
X144509416Y-137037831D01*
X144509413Y-137037830D01*
X144509409Y-137037829D01*
X144509403Y-137037828D01*
X144330559Y-137009501D01*
X144330547Y-137009500D01*
X144330546Y-137009500D01*
X144149454Y-137009500D01*
X144149452Y-137009500D01*
X144149440Y-137009501D01*
X143970596Y-137037828D01*
X143970593Y-137037828D01*
X143970591Y-137037829D01*
X143970589Y-137037829D01*
X143970583Y-137037831D01*
X143798366Y-137093787D01*
X143798359Y-137093789D01*
X143637005Y-137176004D01*
X143490491Y-137282453D01*
X143362453Y-137410491D01*
X143256004Y-137557005D01*
X143173789Y-137718359D01*
X143173787Y-137718366D01*
X143117831Y-137890583D01*
X143117828Y-137890596D01*
X143089501Y-138069440D01*
X143089500Y-138069456D01*
X130150500Y-138069456D01*
X130150500Y-138069454D01*
X130122171Y-137890591D01*
X130066211Y-137718361D01*
X129983996Y-137557006D01*
X129877553Y-137410499D01*
X129877548Y-137410494D01*
X129877546Y-137410491D01*
X129749508Y-137282453D01*
X129749504Y-137282450D01*
X129749501Y-137282447D01*
X129602994Y-137176004D01*
X129441640Y-137093789D01*
X129441633Y-137093787D01*
X129269416Y-137037831D01*
X129269413Y-137037830D01*
X129269409Y-137037829D01*
X129269403Y-137037828D01*
X129090559Y-137009501D01*
X129090547Y-137009500D01*
X129090546Y-137009500D01*
X128909454Y-137009500D01*
X128909452Y-137009500D01*
X128909440Y-137009501D01*
X128730596Y-137037828D01*
X128730593Y-137037828D01*
X128730591Y-137037829D01*
X128730589Y-137037829D01*
X128730583Y-137037831D01*
X128558366Y-137093787D01*
X128558359Y-137093789D01*
X128397005Y-137176004D01*
X128250491Y-137282453D01*
X128122453Y-137410491D01*
X128016004Y-137557005D01*
X127933789Y-137718359D01*
X127933787Y-137718366D01*
X127877831Y-137890583D01*
X127877828Y-137890596D01*
X127849501Y-138069440D01*
X127849500Y-138069456D01*
X124431883Y-138069456D01*
X125928533Y-136572806D01*
X125972727Y-136554500D01*
X126073000Y-136554500D01*
X126073001Y-136554500D01*
X126214029Y-136516712D01*
X126340471Y-136443711D01*
X126443711Y-136340471D01*
X126516712Y-136214029D01*
X126554500Y-136073001D01*
X126554500Y-135926999D01*
X126516712Y-135785971D01*
X126443711Y-135659529D01*
X126443709Y-135659527D01*
X126443706Y-135659523D01*
X126340476Y-135556293D01*
X126340472Y-135556290D01*
X126340471Y-135556289D01*
X126298411Y-135532006D01*
X127881900Y-135532006D01*
X127881900Y-135707993D01*
X127881901Y-135708007D01*
X127909431Y-135881821D01*
X127909432Y-135881824D01*
X127931045Y-135948341D01*
X127963816Y-136049201D01*
X127963818Y-136049206D01*
X127963819Y-136049207D01*
X128043716Y-136206014D01*
X128147160Y-136348392D01*
X128147167Y-136348400D01*
X128271599Y-136472832D01*
X128271607Y-136472839D01*
X128409199Y-136572806D01*
X128413988Y-136576285D01*
X128570799Y-136656184D01*
X128738178Y-136710568D01*
X128912004Y-136738100D01*
X128912006Y-136738100D01*
X129087994Y-136738100D01*
X129087996Y-136738100D01*
X129261822Y-136710568D01*
X129429201Y-136656184D01*
X129586012Y-136576285D01*
X129728393Y-136472839D01*
X129852839Y-136348393D01*
X129956285Y-136206012D01*
X130036184Y-136049201D01*
X130090568Y-135881822D01*
X130118100Y-135707996D01*
X130118100Y-135532006D01*
X143121900Y-135532006D01*
X143121900Y-135707993D01*
X143121901Y-135708007D01*
X143149431Y-135881821D01*
X143149432Y-135881824D01*
X143171045Y-135948341D01*
X143203816Y-136049201D01*
X143203818Y-136049206D01*
X143203819Y-136049207D01*
X143283716Y-136206014D01*
X143387160Y-136348392D01*
X143387167Y-136348400D01*
X143511599Y-136472832D01*
X143511607Y-136472839D01*
X143649199Y-136572806D01*
X143653988Y-136576285D01*
X143810799Y-136656184D01*
X143978178Y-136710568D01*
X144152004Y-136738100D01*
X144152006Y-136738100D01*
X144327994Y-136738100D01*
X144327996Y-136738100D01*
X144501822Y-136710568D01*
X144669201Y-136656184D01*
X144826012Y-136576285D01*
X144968393Y-136472839D01*
X145092839Y-136348393D01*
X145196285Y-136206012D01*
X145276184Y-136049201D01*
X145330568Y-135881822D01*
X145358100Y-135707996D01*
X145358100Y-135532004D01*
X145330568Y-135358178D01*
X145276184Y-135190799D01*
X145196285Y-135033988D01*
X145092839Y-134891607D01*
X145092832Y-134891599D01*
X144968400Y-134767167D01*
X144968392Y-134767160D01*
X144826014Y-134663716D01*
X144669207Y-134583819D01*
X144669206Y-134583818D01*
X144669201Y-134583816D01*
X144669195Y-134583814D01*
X144501824Y-134529432D01*
X144501821Y-134529431D01*
X144328007Y-134501901D01*
X144327997Y-134501900D01*
X144327996Y-134501900D01*
X144152004Y-134501900D01*
X144152002Y-134501900D01*
X144151992Y-134501901D01*
X143978178Y-134529431D01*
X143978175Y-134529432D01*
X143810804Y-134583814D01*
X143810792Y-134583819D01*
X143653985Y-134663716D01*
X143511607Y-134767160D01*
X143511599Y-134767167D01*
X143387167Y-134891599D01*
X143387160Y-134891607D01*
X143283716Y-135033985D01*
X143203819Y-135190792D01*
X143203814Y-135190804D01*
X143149432Y-135358175D01*
X143149431Y-135358178D01*
X143121901Y-135531992D01*
X143121900Y-135532006D01*
X130118100Y-135532006D01*
X130118100Y-135532004D01*
X130090568Y-135358178D01*
X130036184Y-135190799D01*
X129956285Y-135033988D01*
X129852839Y-134891607D01*
X129852832Y-134891599D01*
X129728400Y-134767167D01*
X129728392Y-134767160D01*
X129586014Y-134663716D01*
X129429207Y-134583819D01*
X129429206Y-134583818D01*
X129429201Y-134583816D01*
X129429195Y-134583814D01*
X129261824Y-134529432D01*
X129261821Y-134529431D01*
X129088007Y-134501901D01*
X129087997Y-134501900D01*
X129087996Y-134501900D01*
X128912004Y-134501900D01*
X128912002Y-134501900D01*
X128911992Y-134501901D01*
X128738178Y-134529431D01*
X128738175Y-134529432D01*
X128570804Y-134583814D01*
X128570792Y-134583819D01*
X128413985Y-134663716D01*
X128271607Y-134767160D01*
X128271599Y-134767167D01*
X128147167Y-134891599D01*
X128147160Y-134891607D01*
X128043716Y-135033985D01*
X127963819Y-135190792D01*
X127963814Y-135190804D01*
X127909432Y-135358175D01*
X127909431Y-135358178D01*
X127881901Y-135531992D01*
X127881900Y-135532006D01*
X126298411Y-135532006D01*
X126261898Y-135510925D01*
X126214028Y-135483287D01*
X126214025Y-135483286D01*
X126073007Y-135445501D01*
X126073002Y-135445500D01*
X126073001Y-135445500D01*
X125926999Y-135445500D01*
X125926998Y-135445500D01*
X125926992Y-135445501D01*
X125785974Y-135483286D01*
X125785971Y-135483287D01*
X125659527Y-135556290D01*
X125659523Y-135556293D01*
X125556293Y-135659523D01*
X125556290Y-135659527D01*
X125483287Y-135785971D01*
X125483286Y-135785974D01*
X125445501Y-135926992D01*
X125445500Y-135927000D01*
X125445500Y-136027273D01*
X125427194Y-136071467D01*
X117916329Y-143582331D01*
X117869659Y-143663168D01*
X117869658Y-143663170D01*
X117845500Y-143753323D01*
X117845500Y-143882405D01*
X117827194Y-143926599D01*
X117802315Y-143941845D01*
X117768348Y-143952882D01*
X117768338Y-143952886D01*
X117610631Y-144033243D01*
X117467438Y-144137279D01*
X117467430Y-144137286D01*
X117342286Y-144262430D01*
X117342279Y-144262438D01*
X117238243Y-144405631D01*
X117157886Y-144563338D01*
X117157885Y-144563340D01*
X117103188Y-144731680D01*
X117103188Y-144731681D01*
X117075501Y-144906486D01*
X117075500Y-144906502D01*
X116784500Y-144906502D01*
X116784500Y-144906500D01*
X116756811Y-144731679D01*
X116702115Y-144563342D01*
X116621758Y-144405634D01*
X116517720Y-144262438D01*
X116517713Y-144262430D01*
X116392569Y-144137286D01*
X116392561Y-144137279D01*
X116249368Y-144033243D01*
X116091661Y-143952886D01*
X116091659Y-143952885D01*
X115923319Y-143898188D01*
X115748513Y-143870501D01*
X115748501Y-143870500D01*
X115748500Y-143870500D01*
X115571500Y-143870500D01*
X115571498Y-143870500D01*
X115571486Y-143870501D01*
X115396681Y-143898188D01*
X115396680Y-143898188D01*
X115228340Y-143952885D01*
X115228338Y-143952886D01*
X115070631Y-144033243D01*
X114927438Y-144137279D01*
X114927430Y-144137286D01*
X114802286Y-144262430D01*
X114802279Y-144262438D01*
X114698243Y-144405631D01*
X114617886Y-144563338D01*
X114617885Y-144563340D01*
X114563188Y-144731680D01*
X114563188Y-144731681D01*
X114535501Y-144906486D01*
X114535500Y-144906502D01*
X114244500Y-144906502D01*
X114244500Y-144906500D01*
X114216811Y-144731679D01*
X114162115Y-144563342D01*
X114081758Y-144405634D01*
X113977720Y-144262438D01*
X113977713Y-144262430D01*
X113852569Y-144137286D01*
X113852561Y-144137279D01*
X113709368Y-144033243D01*
X113551661Y-143952886D01*
X113551659Y-143952885D01*
X113383319Y-143898188D01*
X113208513Y-143870501D01*
X113208501Y-143870500D01*
X113208500Y-143870500D01*
X113031500Y-143870500D01*
X113031498Y-143870500D01*
X113031486Y-143870501D01*
X112856681Y-143898188D01*
X112856680Y-143898188D01*
X112688340Y-143952885D01*
X112688338Y-143952886D01*
X112530631Y-144033243D01*
X112387438Y-144137279D01*
X112387430Y-144137286D01*
X112262286Y-144262430D01*
X112262279Y-144262438D01*
X112158243Y-144405631D01*
X112077886Y-144563338D01*
X112077885Y-144563340D01*
X112023188Y-144731680D01*
X112023188Y-144731681D01*
X111995501Y-144906486D01*
X111995500Y-144906502D01*
X111754000Y-144906502D01*
X111754000Y-144902606D01*
X111753998Y-144902590D01*
X111725092Y-144720090D01*
X111725092Y-144720089D01*
X111667988Y-144544342D01*
X111667984Y-144544334D01*
X111584095Y-144379692D01*
X111475470Y-144230182D01*
X111344817Y-144099529D01*
X111195307Y-143990904D01*
X111030665Y-143907015D01*
X111030657Y-143907011D01*
X110854910Y-143849907D01*
X110854911Y-143849907D01*
X110732000Y-143830439D01*
X110732000Y-144644738D01*
X110658333Y-144625000D01*
X110501667Y-144625000D01*
X110428000Y-144644738D01*
X110428000Y-143830439D01*
X110427999Y-143830439D01*
X110305088Y-143849907D01*
X110129342Y-143907011D01*
X110129334Y-143907015D01*
X109964692Y-143990904D01*
X109815182Y-144099529D01*
X109684529Y-144230182D01*
X109575904Y-144379692D01*
X109492015Y-144544334D01*
X109492011Y-144544342D01*
X109434907Y-144720089D01*
X109434907Y-144720090D01*
X109406001Y-144902590D01*
X109406000Y-144902606D01*
X109164499Y-144902606D01*
X109164499Y-144326746D01*
X109158040Y-144266658D01*
X109107342Y-144130733D01*
X109020404Y-144014596D01*
X108904267Y-143927658D01*
X108904265Y-143927657D01*
X108904263Y-143927656D01*
X108768343Y-143876960D01*
X108708255Y-143870500D01*
X107371753Y-143870500D01*
X107371736Y-143870501D01*
X107311656Y-143876960D01*
X107175736Y-143927656D01*
X107175731Y-143927659D01*
X107059596Y-144014596D01*
X106972659Y-144130731D01*
X106972656Y-144130736D01*
X106921960Y-144266656D01*
X106915500Y-144326737D01*
X100500500Y-144326737D01*
X100500500Y-136207000D01*
X104445500Y-136207000D01*
X104445500Y-136352999D01*
X104445501Y-136353007D01*
X104483286Y-136494025D01*
X104483287Y-136494028D01*
X104556290Y-136620472D01*
X104556293Y-136620476D01*
X104659523Y-136723706D01*
X104659527Y-136723709D01*
X104659529Y-136723711D01*
X104785971Y-136796712D01*
X104785974Y-136796713D01*
X104872274Y-136819836D01*
X104926999Y-136834500D01*
X104927000Y-136834500D01*
X105073000Y-136834500D01*
X105073001Y-136834500D01*
X105214029Y-136796712D01*
X105340471Y-136723711D01*
X105443711Y-136620471D01*
X105516712Y-136494029D01*
X105554500Y-136353001D01*
X105554500Y-136206999D01*
X105516712Y-136065971D01*
X105443711Y-135939529D01*
X105417258Y-135913076D01*
X109355500Y-135913076D01*
X109355500Y-136086923D01*
X109355501Y-136086937D01*
X109382696Y-136258637D01*
X109436419Y-136423979D01*
X109436423Y-136423987D01*
X109515348Y-136578886D01*
X109617534Y-136719532D01*
X109617541Y-136719540D01*
X109740459Y-136842458D01*
X109740467Y-136842465D01*
X109785339Y-136875067D01*
X109881116Y-136944653D01*
X110036019Y-137023580D01*
X110201362Y-137077303D01*
X110373074Y-137104500D01*
X110373076Y-137104500D01*
X110546924Y-137104500D01*
X110546926Y-137104500D01*
X110718638Y-137077303D01*
X110883981Y-137023580D01*
X111038884Y-136944653D01*
X111179533Y-136842465D01*
X111302465Y-136719533D01*
X111404653Y-136578884D01*
X111483580Y-136423981D01*
X111537303Y-136258638D01*
X111564500Y-136086926D01*
X111564500Y-135913074D01*
X111537303Y-135741362D01*
X111483580Y-135576019D01*
X111404653Y-135421116D01*
X111358923Y-135358175D01*
X111302465Y-135280467D01*
X111302458Y-135280459D01*
X111179540Y-135157541D01*
X111179532Y-135157534D01*
X111038886Y-135055348D01*
X110883987Y-134976423D01*
X110883979Y-134976419D01*
X110718636Y-134922696D01*
X110718637Y-134922696D01*
X110546937Y-134895501D01*
X110546927Y-134895500D01*
X110546926Y-134895500D01*
X110373074Y-134895500D01*
X110373072Y-134895500D01*
X110373062Y-134895501D01*
X110201362Y-134922696D01*
X110036020Y-134976419D01*
X110036012Y-134976423D01*
X109881113Y-135055348D01*
X109740467Y-135157534D01*
X109740459Y-135157541D01*
X109617541Y-135280459D01*
X109617534Y-135280467D01*
X109515348Y-135421113D01*
X109436423Y-135576012D01*
X109436419Y-135576020D01*
X109382696Y-135741362D01*
X109355501Y-135913062D01*
X109355500Y-135913076D01*
X105417258Y-135913076D01*
X105372281Y-135868099D01*
X105371768Y-135867561D01*
X105363388Y-135845886D01*
X105354500Y-135824429D01*
X105354500Y-112927000D01*
X106445500Y-112927000D01*
X106445500Y-113072999D01*
X106445501Y-113073007D01*
X106483286Y-113214025D01*
X106483287Y-113214028D01*
X106556290Y-113340472D01*
X106627194Y-113411376D01*
X106645500Y-113455570D01*
X106645500Y-130046676D01*
X106666471Y-130124934D01*
X106669659Y-130136832D01*
X106690270Y-130172532D01*
X106716329Y-130217668D01*
X111977477Y-135478816D01*
X111995783Y-135523010D01*
X111988972Y-135551383D01*
X111976421Y-135576016D01*
X111976419Y-135576020D01*
X111922696Y-135741362D01*
X111895501Y-135913062D01*
X111895500Y-135913076D01*
X111895500Y-136086923D01*
X111895501Y-136086937D01*
X111922696Y-136258637D01*
X111976419Y-136423979D01*
X111976423Y-136423987D01*
X112055348Y-136578886D01*
X112157534Y-136719532D01*
X112157541Y-136719540D01*
X112280459Y-136842458D01*
X112280467Y-136842465D01*
X112325339Y-136875067D01*
X112421116Y-136944653D01*
X112576019Y-137023580D01*
X112741362Y-137077303D01*
X112913074Y-137104500D01*
X112913076Y-137104500D01*
X113086924Y-137104500D01*
X113086926Y-137104500D01*
X113258638Y-137077303D01*
X113423981Y-137023580D01*
X113578884Y-136944653D01*
X113719533Y-136842465D01*
X113842465Y-136719533D01*
X113944653Y-136578884D01*
X114023580Y-136423981D01*
X114077303Y-136258638D01*
X114104500Y-136086926D01*
X114104500Y-135913074D01*
X114077303Y-135741362D01*
X114023580Y-135576019D01*
X113944653Y-135421116D01*
X113898923Y-135358175D01*
X113842465Y-135280467D01*
X113842458Y-135280459D01*
X113719540Y-135157541D01*
X113719532Y-135157534D01*
X113674660Y-135124932D01*
X114435500Y-135124932D01*
X114435500Y-136875064D01*
X114435501Y-136875068D01*
X114450265Y-136949299D01*
X114450267Y-136949303D01*
X114506515Y-137033484D01*
X114590697Y-137089733D01*
X114590699Y-137089734D01*
X114664933Y-137104500D01*
X116415066Y-137104499D01*
X116489301Y-137089734D01*
X116573484Y-137033484D01*
X116629734Y-136949301D01*
X116644500Y-136875067D01*
X116644500Y-136417000D01*
X116662806Y-136372806D01*
X116707000Y-136354500D01*
X123544430Y-136354500D01*
X123588624Y-136372806D01*
X123659529Y-136443711D01*
X123746676Y-136494025D01*
X123785971Y-136516712D01*
X123785974Y-136516713D01*
X123872274Y-136539836D01*
X123926999Y-136554500D01*
X123927000Y-136554500D01*
X124073000Y-136554500D01*
X124073001Y-136554500D01*
X124214029Y-136516712D01*
X124340471Y-136443711D01*
X124443711Y-136340471D01*
X124516712Y-136214029D01*
X124554500Y-136073001D01*
X124554500Y-135926999D01*
X124516712Y-135785971D01*
X124443711Y-135659529D01*
X124443709Y-135659527D01*
X124443706Y-135659523D01*
X124340476Y-135556293D01*
X124340472Y-135556290D01*
X124340471Y-135556289D01*
X124261898Y-135510925D01*
X124214028Y-135483287D01*
X124214025Y-135483286D01*
X124073007Y-135445501D01*
X124073002Y-135445500D01*
X124073001Y-135445500D01*
X123926999Y-135445500D01*
X123926998Y-135445500D01*
X123926992Y-135445501D01*
X123785974Y-135483286D01*
X123785971Y-135483287D01*
X123659527Y-135556290D01*
X123659524Y-135556293D01*
X123588624Y-135627194D01*
X123544430Y-135645500D01*
X116706999Y-135645500D01*
X116662805Y-135627194D01*
X116644499Y-135583000D01*
X116644499Y-135124935D01*
X116644499Y-135124933D01*
X116629734Y-135050699D01*
X116602263Y-135009586D01*
X116573484Y-134966515D01*
X116489302Y-134910266D01*
X116489300Y-134910265D01*
X116415067Y-134895500D01*
X114664935Y-134895500D01*
X114664931Y-134895501D01*
X114590700Y-134910265D01*
X114590696Y-134910267D01*
X114506515Y-134966515D01*
X114450266Y-135050697D01*
X114450265Y-135050699D01*
X114435500Y-135124932D01*
X113674660Y-135124932D01*
X113578886Y-135055348D01*
X113423987Y-134976423D01*
X113423979Y-134976419D01*
X113258636Y-134922696D01*
X113258637Y-134922696D01*
X113086937Y-134895501D01*
X113086927Y-134895500D01*
X113086926Y-134895500D01*
X112913074Y-134895500D01*
X112913072Y-134895500D01*
X112913062Y-134895501D01*
X112741362Y-134922696D01*
X112576020Y-134976419D01*
X112576016Y-134976421D01*
X112551383Y-134988972D01*
X112503695Y-134992723D01*
X112478816Y-134977477D01*
X108414415Y-130913076D01*
X109355500Y-130913076D01*
X109355500Y-131086923D01*
X109355501Y-131086937D01*
X109382696Y-131258637D01*
X109436419Y-131423979D01*
X109436423Y-131423987D01*
X109515348Y-131578886D01*
X109617534Y-131719532D01*
X109617541Y-131719540D01*
X109740459Y-131842458D01*
X109740467Y-131842465D01*
X109881116Y-131944653D01*
X110036019Y-132023580D01*
X110201362Y-132077303D01*
X110373074Y-132104500D01*
X110373076Y-132104500D01*
X110546924Y-132104500D01*
X110546926Y-132104500D01*
X110718638Y-132077303D01*
X110883981Y-132023580D01*
X111038884Y-131944653D01*
X111179533Y-131842465D01*
X111302465Y-131719533D01*
X111404653Y-131578884D01*
X111483580Y-131423981D01*
X111537303Y-131258638D01*
X111564500Y-131086926D01*
X111564500Y-130913074D01*
X111537303Y-130741362D01*
X111483580Y-130576019D01*
X111404653Y-130421116D01*
X111302465Y-130280467D01*
X111302458Y-130280459D01*
X111179540Y-130157541D01*
X111179532Y-130157534D01*
X111038886Y-130055348D01*
X110883987Y-129976423D01*
X110883979Y-129976419D01*
X110718636Y-129922696D01*
X110718637Y-129922696D01*
X110546937Y-129895501D01*
X110546927Y-129895500D01*
X110546926Y-129895500D01*
X110373074Y-129895500D01*
X110373072Y-129895500D01*
X110373062Y-129895501D01*
X110201362Y-129922696D01*
X110036020Y-129976419D01*
X110036012Y-129976423D01*
X109881113Y-130055348D01*
X109740467Y-130157534D01*
X109740459Y-130157541D01*
X109617541Y-130280459D01*
X109617534Y-130280467D01*
X109515348Y-130421113D01*
X109436423Y-130576012D01*
X109436419Y-130576020D01*
X109382696Y-130741362D01*
X109355501Y-130913062D01*
X109355500Y-130913076D01*
X108414415Y-130913076D01*
X107372806Y-129871467D01*
X107354500Y-129827273D01*
X107354500Y-125913076D01*
X109355500Y-125913076D01*
X109355500Y-126086923D01*
X109355501Y-126086937D01*
X109382696Y-126258637D01*
X109436419Y-126423979D01*
X109436423Y-126423987D01*
X109515348Y-126578886D01*
X109617534Y-126719532D01*
X109617541Y-126719540D01*
X109740459Y-126842458D01*
X109740467Y-126842465D01*
X109781766Y-126872471D01*
X109881116Y-126944653D01*
X110036019Y-127023580D01*
X110201362Y-127077303D01*
X110373074Y-127104500D01*
X110373076Y-127104500D01*
X110546924Y-127104500D01*
X110546926Y-127104500D01*
X110718638Y-127077303D01*
X110883981Y-127023580D01*
X111038884Y-126944653D01*
X111179533Y-126842465D01*
X111302465Y-126719533D01*
X111404653Y-126578884D01*
X111483580Y-126423981D01*
X111537303Y-126258638D01*
X111564500Y-126086926D01*
X111564500Y-125913074D01*
X111537303Y-125741362D01*
X111483580Y-125576019D01*
X111404653Y-125421116D01*
X111302465Y-125280467D01*
X111302458Y-125280459D01*
X111179540Y-125157541D01*
X111179532Y-125157534D01*
X111038886Y-125055348D01*
X110883987Y-124976423D01*
X110883979Y-124976419D01*
X110718636Y-124922696D01*
X110718637Y-124922696D01*
X110546937Y-124895501D01*
X110546927Y-124895500D01*
X110546926Y-124895500D01*
X110373074Y-124895500D01*
X110373072Y-124895500D01*
X110373062Y-124895501D01*
X110201362Y-124922696D01*
X110036020Y-124976419D01*
X110036012Y-124976423D01*
X109881113Y-125055348D01*
X109740467Y-125157534D01*
X109740459Y-125157541D01*
X109617541Y-125280459D01*
X109617534Y-125280467D01*
X109515348Y-125421113D01*
X109436423Y-125576012D01*
X109436419Y-125576020D01*
X109382696Y-125741362D01*
X109355501Y-125913062D01*
X109355500Y-125913076D01*
X107354500Y-125913076D01*
X107354500Y-120913076D01*
X109355500Y-120913076D01*
X109355500Y-121086923D01*
X109355501Y-121086937D01*
X109382696Y-121258637D01*
X109436419Y-121423979D01*
X109436423Y-121423987D01*
X109515348Y-121578886D01*
X109617534Y-121719532D01*
X109617541Y-121719540D01*
X109740459Y-121842458D01*
X109740467Y-121842465D01*
X109785339Y-121875067D01*
X109881116Y-121944653D01*
X110036019Y-122023580D01*
X110201362Y-122077303D01*
X110373074Y-122104500D01*
X110373076Y-122104500D01*
X110546924Y-122104500D01*
X110546926Y-122104500D01*
X110718638Y-122077303D01*
X110883981Y-122023580D01*
X111038884Y-121944653D01*
X111179533Y-121842465D01*
X111302465Y-121719533D01*
X111381437Y-121610838D01*
X111422223Y-121585844D01*
X111468737Y-121597012D01*
X111493731Y-121637798D01*
X111494500Y-121647575D01*
X111494500Y-124895676D01*
X111516137Y-124976420D01*
X111518659Y-124985832D01*
X111565329Y-125066668D01*
X111977477Y-125478816D01*
X111995783Y-125523010D01*
X111988972Y-125551383D01*
X111976421Y-125576016D01*
X111976419Y-125576020D01*
X111922696Y-125741362D01*
X111895501Y-125913062D01*
X111895500Y-125913076D01*
X111895500Y-126086923D01*
X111895501Y-126086937D01*
X111922696Y-126258637D01*
X111976419Y-126423979D01*
X111976423Y-126423987D01*
X112055348Y-126578886D01*
X112157534Y-126719532D01*
X112157541Y-126719540D01*
X112280459Y-126842458D01*
X112280467Y-126842465D01*
X112321766Y-126872471D01*
X112421116Y-126944653D01*
X112576019Y-127023580D01*
X112741362Y-127077303D01*
X112913074Y-127104500D01*
X112913076Y-127104500D01*
X113086924Y-127104500D01*
X113086926Y-127104500D01*
X113258638Y-127077303D01*
X113423981Y-127023580D01*
X113578884Y-126944653D01*
X113697263Y-126858644D01*
X113743777Y-126847477D01*
X113784563Y-126872471D01*
X113796500Y-126909208D01*
X113796500Y-129676272D01*
X113778194Y-129720466D01*
X113521182Y-129977477D01*
X113476988Y-129995783D01*
X113448614Y-129988971D01*
X113423987Y-129976423D01*
X113423979Y-129976419D01*
X113258636Y-129922696D01*
X113258637Y-129922696D01*
X113086937Y-129895501D01*
X113086927Y-129895500D01*
X113086926Y-129895500D01*
X112913074Y-129895500D01*
X112913072Y-129895500D01*
X112913062Y-129895501D01*
X112741362Y-129922696D01*
X112576020Y-129976419D01*
X112576012Y-129976423D01*
X112421113Y-130055348D01*
X112280467Y-130157534D01*
X112280459Y-130157541D01*
X112157541Y-130280459D01*
X112157534Y-130280467D01*
X112055348Y-130421113D01*
X111976423Y-130576012D01*
X111976419Y-130576020D01*
X111922696Y-130741362D01*
X111895501Y-130913062D01*
X111895500Y-130913076D01*
X111895500Y-131086923D01*
X111895501Y-131086937D01*
X111922696Y-131258637D01*
X111976419Y-131423979D01*
X111976423Y-131423987D01*
X112055348Y-131578886D01*
X112157534Y-131719532D01*
X112157541Y-131719540D01*
X112280459Y-131842458D01*
X112280467Y-131842465D01*
X112421116Y-131944653D01*
X112576019Y-132023580D01*
X112741362Y-132077303D01*
X112913074Y-132104500D01*
X112913076Y-132104500D01*
X113086924Y-132104500D01*
X113086926Y-132104500D01*
X113258638Y-132077303D01*
X113423981Y-132023580D01*
X113578884Y-131944653D01*
X113719533Y-131842465D01*
X113842465Y-131719533D01*
X113944653Y-131578884D01*
X114023580Y-131423981D01*
X114077303Y-131258638D01*
X114104500Y-131086926D01*
X114104500Y-130913074D01*
X114077303Y-130741362D01*
X114023580Y-130576019D01*
X114011027Y-130551383D01*
X114007273Y-130503698D01*
X114022519Y-130478818D01*
X114328807Y-130172531D01*
X114373000Y-130154226D01*
X114417194Y-130172532D01*
X114435500Y-130216726D01*
X114435500Y-131875064D01*
X114435501Y-131875068D01*
X114450265Y-131949299D01*
X114450267Y-131949303D01*
X114506515Y-132033484D01*
X114590697Y-132089733D01*
X114590699Y-132089734D01*
X114664933Y-132104500D01*
X116117272Y-132104499D01*
X116161466Y-132122805D01*
X117336329Y-133297668D01*
X117402332Y-133363671D01*
X117483168Y-133410341D01*
X117525415Y-133421661D01*
X117573323Y-133434499D01*
X117573329Y-133434500D01*
X127894136Y-133434500D01*
X127938330Y-133452806D01*
X127953577Y-133477687D01*
X127963814Y-133509196D01*
X127963819Y-133509207D01*
X128043716Y-133666014D01*
X128147160Y-133808392D01*
X128147167Y-133808400D01*
X128271599Y-133932832D01*
X128271607Y-133932839D01*
X128413988Y-134036285D01*
X128570799Y-134116184D01*
X128738178Y-134170568D01*
X128912004Y-134198100D01*
X128912006Y-134198100D01*
X129087994Y-134198100D01*
X129087996Y-134198100D01*
X129261822Y-134170568D01*
X129429201Y-134116184D01*
X129586012Y-134036285D01*
X129728393Y-133932839D01*
X129852839Y-133808393D01*
X129956285Y-133666012D01*
X130036184Y-133509201D01*
X130090568Y-133341822D01*
X130118100Y-133167996D01*
X130118100Y-132992006D01*
X143121900Y-132992006D01*
X143121900Y-133167993D01*
X143121901Y-133168007D01*
X143149431Y-133341821D01*
X143149432Y-133341824D01*
X143203814Y-133509195D01*
X143203816Y-133509201D01*
X143203818Y-133509206D01*
X143203819Y-133509207D01*
X143283716Y-133666014D01*
X143387160Y-133808392D01*
X143387167Y-133808400D01*
X143511599Y-133932832D01*
X143511607Y-133932839D01*
X143653988Y-134036285D01*
X143810799Y-134116184D01*
X143978178Y-134170568D01*
X144152004Y-134198100D01*
X144152006Y-134198100D01*
X144327994Y-134198100D01*
X144327996Y-134198100D01*
X144501822Y-134170568D01*
X144669201Y-134116184D01*
X144826012Y-134036285D01*
X144968393Y-133932839D01*
X145092839Y-133808393D01*
X145196285Y-133666012D01*
X145276184Y-133509201D01*
X145330568Y-133341822D01*
X145358100Y-133167996D01*
X145358100Y-132992004D01*
X145330568Y-132818178D01*
X145276184Y-132650799D01*
X145196285Y-132493988D01*
X145092839Y-132351607D01*
X145092832Y-132351599D01*
X144968400Y-132227167D01*
X144968392Y-132227160D01*
X144826014Y-132123716D01*
X144669207Y-132043819D01*
X144669206Y-132043818D01*
X144669201Y-132043816D01*
X144637402Y-132033484D01*
X144501824Y-131989432D01*
X144501821Y-131989431D01*
X144328007Y-131961901D01*
X144327997Y-131961900D01*
X144327996Y-131961900D01*
X144152004Y-131961900D01*
X144152002Y-131961900D01*
X144151992Y-131961901D01*
X143978178Y-131989431D01*
X143978175Y-131989432D01*
X143810804Y-132043814D01*
X143810792Y-132043819D01*
X143653985Y-132123716D01*
X143511607Y-132227160D01*
X143511599Y-132227167D01*
X143387167Y-132351599D01*
X143387160Y-132351607D01*
X143283716Y-132493985D01*
X143203819Y-132650792D01*
X143203814Y-132650804D01*
X143149432Y-132818175D01*
X143149431Y-132818178D01*
X143121901Y-132991992D01*
X143121900Y-132992006D01*
X130118100Y-132992006D01*
X130118100Y-132992004D01*
X130090568Y-132818178D01*
X130036184Y-132650799D01*
X129956285Y-132493988D01*
X129852839Y-132351607D01*
X129852832Y-132351599D01*
X129728400Y-132227167D01*
X129728392Y-132227160D01*
X129586014Y-132123716D01*
X129429207Y-132043819D01*
X129429206Y-132043818D01*
X129429201Y-132043816D01*
X129397402Y-132033484D01*
X129261824Y-131989432D01*
X129261821Y-131989431D01*
X129088007Y-131961901D01*
X129087997Y-131961900D01*
X129087996Y-131961900D01*
X128912004Y-131961900D01*
X128912002Y-131961900D01*
X128911992Y-131961901D01*
X128738178Y-131989431D01*
X128738175Y-131989432D01*
X128570804Y-132043814D01*
X128570792Y-132043819D01*
X128413985Y-132123716D01*
X128271607Y-132227160D01*
X128271599Y-132227167D01*
X128147167Y-132351599D01*
X128147160Y-132351607D01*
X128043716Y-132493985D01*
X127963819Y-132650792D01*
X127963814Y-132650803D01*
X127953577Y-132682313D01*
X127922511Y-132718688D01*
X127894136Y-132725500D01*
X117792727Y-132725500D01*
X117748533Y-132707194D01*
X116662805Y-131621466D01*
X116644499Y-131577272D01*
X116644499Y-130124935D01*
X116644498Y-130124931D01*
X116641688Y-130110804D01*
X116629734Y-130050699D01*
X116593040Y-129995783D01*
X116573484Y-129966515D01*
X116489302Y-129910266D01*
X116489300Y-129910265D01*
X116415067Y-129895500D01*
X114664935Y-129895500D01*
X114664931Y-129895501D01*
X114584661Y-129911467D01*
X114584322Y-129909764D01*
X114544070Y-129909755D01*
X114510252Y-129875923D01*
X114505500Y-129852018D01*
X114505500Y-127147981D01*
X114523806Y-127103787D01*
X114568000Y-127085481D01*
X114584610Y-127088785D01*
X114584661Y-127088533D01*
X114590698Y-127089733D01*
X114590699Y-127089734D01*
X114664933Y-127104500D01*
X116117272Y-127104499D01*
X116161466Y-127122805D01*
X119796329Y-130757668D01*
X119862332Y-130823671D01*
X119943168Y-130870341D01*
X119943170Y-130870342D01*
X119951031Y-130872447D01*
X119962222Y-130875446D01*
X120033329Y-130894501D01*
X120033332Y-130894501D01*
X120130496Y-130894501D01*
X120130512Y-130894500D01*
X127894136Y-130894500D01*
X127938330Y-130912806D01*
X127953577Y-130937687D01*
X127963814Y-130969196D01*
X127963819Y-130969207D01*
X128043716Y-131126014D01*
X128147160Y-131268392D01*
X128147167Y-131268400D01*
X128271599Y-131392832D01*
X128271607Y-131392839D01*
X128413988Y-131496285D01*
X128570799Y-131576184D01*
X128738178Y-131630568D01*
X128912004Y-131658100D01*
X128912006Y-131658100D01*
X129087994Y-131658100D01*
X129087996Y-131658100D01*
X129261822Y-131630568D01*
X129429201Y-131576184D01*
X129586012Y-131496285D01*
X129728393Y-131392839D01*
X129852839Y-131268393D01*
X129956285Y-131126012D01*
X130036184Y-130969201D01*
X130090568Y-130801822D01*
X130118100Y-130627996D01*
X130118100Y-130452006D01*
X143121900Y-130452006D01*
X143121900Y-130627993D01*
X143121901Y-130628007D01*
X143149431Y-130801821D01*
X143149432Y-130801824D01*
X143203814Y-130969195D01*
X143203816Y-130969201D01*
X143203818Y-130969206D01*
X143203819Y-130969207D01*
X143283716Y-131126014D01*
X143387160Y-131268392D01*
X143387167Y-131268400D01*
X143511599Y-131392832D01*
X143511607Y-131392839D01*
X143653988Y-131496285D01*
X143810799Y-131576184D01*
X143978178Y-131630568D01*
X144152004Y-131658100D01*
X144152006Y-131658100D01*
X144327994Y-131658100D01*
X144327996Y-131658100D01*
X144501822Y-131630568D01*
X144669201Y-131576184D01*
X144826012Y-131496285D01*
X144968393Y-131392839D01*
X145092839Y-131268393D01*
X145196285Y-131126012D01*
X145276184Y-130969201D01*
X145330568Y-130801822D01*
X145358100Y-130627996D01*
X145358100Y-130452004D01*
X145330568Y-130278178D01*
X145276184Y-130110799D01*
X145196285Y-129953988D01*
X145092839Y-129811607D01*
X145092832Y-129811599D01*
X144968400Y-129687167D01*
X144968392Y-129687160D01*
X144826014Y-129583716D01*
X144669207Y-129503819D01*
X144669206Y-129503818D01*
X144669201Y-129503816D01*
X144669195Y-129503814D01*
X144501824Y-129449432D01*
X144501821Y-129449431D01*
X144328007Y-129421901D01*
X144327997Y-129421900D01*
X144327996Y-129421900D01*
X144152004Y-129421900D01*
X144152002Y-129421900D01*
X144151992Y-129421901D01*
X143978178Y-129449431D01*
X143978175Y-129449432D01*
X143810804Y-129503814D01*
X143810792Y-129503819D01*
X143653985Y-129583716D01*
X143511607Y-129687160D01*
X143511599Y-129687167D01*
X143387167Y-129811599D01*
X143387160Y-129811607D01*
X143283716Y-129953985D01*
X143203819Y-130110792D01*
X143203814Y-130110804D01*
X143149432Y-130278175D01*
X143149431Y-130278178D01*
X143121901Y-130451992D01*
X143121900Y-130452006D01*
X130118100Y-130452006D01*
X130118100Y-130452004D01*
X130090568Y-130278178D01*
X130036184Y-130110799D01*
X129956285Y-129953988D01*
X129852839Y-129811607D01*
X129852832Y-129811599D01*
X129728400Y-129687167D01*
X129728392Y-129687160D01*
X129586014Y-129583716D01*
X129429207Y-129503819D01*
X129429206Y-129503818D01*
X129429201Y-129503816D01*
X129429195Y-129503814D01*
X129261824Y-129449432D01*
X129261821Y-129449431D01*
X129088007Y-129421901D01*
X129087997Y-129421900D01*
X129087996Y-129421900D01*
X128912004Y-129421900D01*
X128912002Y-129421900D01*
X128911992Y-129421901D01*
X128738178Y-129449431D01*
X128738175Y-129449432D01*
X128570804Y-129503814D01*
X128570792Y-129503819D01*
X128413985Y-129583716D01*
X128271607Y-129687160D01*
X128271599Y-129687167D01*
X128147167Y-129811599D01*
X128147160Y-129811607D01*
X128043716Y-129953985D01*
X127963819Y-130110792D01*
X127963814Y-130110803D01*
X127953577Y-130142313D01*
X127922511Y-130178688D01*
X127894136Y-130185500D01*
X120252727Y-130185500D01*
X120208533Y-130167194D01*
X117953345Y-127912006D01*
X127881900Y-127912006D01*
X127881900Y-128087993D01*
X127881901Y-128088007D01*
X127909431Y-128261821D01*
X127909432Y-128261824D01*
X127963814Y-128429195D01*
X127963816Y-128429201D01*
X127963818Y-128429206D01*
X127963819Y-128429207D01*
X128043716Y-128586014D01*
X128147160Y-128728392D01*
X128147167Y-128728400D01*
X128271599Y-128852832D01*
X128271607Y-128852839D01*
X128413988Y-128956285D01*
X128570799Y-129036184D01*
X128738178Y-129090568D01*
X128912004Y-129118100D01*
X128912006Y-129118100D01*
X129087994Y-129118100D01*
X129087996Y-129118100D01*
X129261822Y-129090568D01*
X129429201Y-129036184D01*
X129586012Y-128956285D01*
X129728393Y-128852839D01*
X129852839Y-128728393D01*
X129956285Y-128586012D01*
X130036184Y-128429201D01*
X130090568Y-128261822D01*
X130118100Y-128087996D01*
X130118100Y-127912006D01*
X143121900Y-127912006D01*
X143121900Y-128087993D01*
X143121901Y-128088007D01*
X143149431Y-128261821D01*
X143149432Y-128261824D01*
X143203814Y-128429195D01*
X143203816Y-128429201D01*
X143203818Y-128429206D01*
X143203819Y-128429207D01*
X143283716Y-128586014D01*
X143387160Y-128728392D01*
X143387167Y-128728400D01*
X143511599Y-128852832D01*
X143511607Y-128852839D01*
X143653988Y-128956285D01*
X143810799Y-129036184D01*
X143978178Y-129090568D01*
X144152004Y-129118100D01*
X144152006Y-129118100D01*
X144327994Y-129118100D01*
X144327996Y-129118100D01*
X144501822Y-129090568D01*
X144669201Y-129036184D01*
X144826012Y-128956285D01*
X144968393Y-128852839D01*
X145092839Y-128728393D01*
X145196285Y-128586012D01*
X145276184Y-128429201D01*
X145330568Y-128261822D01*
X145358100Y-128087996D01*
X145358100Y-127912004D01*
X145330568Y-127738178D01*
X145276184Y-127570799D01*
X145196285Y-127413988D01*
X145092839Y-127271607D01*
X145092832Y-127271599D01*
X144968400Y-127147167D01*
X144968392Y-127147160D01*
X144826014Y-127043716D01*
X144669207Y-126963819D01*
X144669206Y-126963818D01*
X144669201Y-126963816D01*
X144610223Y-126944653D01*
X144501824Y-126909432D01*
X144501821Y-126909431D01*
X144328007Y-126881901D01*
X144327997Y-126881900D01*
X144327996Y-126881900D01*
X144152004Y-126881900D01*
X144152002Y-126881900D01*
X144151992Y-126881901D01*
X143978178Y-126909431D01*
X143978175Y-126909432D01*
X143810804Y-126963814D01*
X143810792Y-126963819D01*
X143653985Y-127043716D01*
X143511607Y-127147160D01*
X143511599Y-127147167D01*
X143387167Y-127271599D01*
X143387160Y-127271607D01*
X143283716Y-127413985D01*
X143203819Y-127570792D01*
X143203814Y-127570804D01*
X143149432Y-127738175D01*
X143149431Y-127738178D01*
X143121901Y-127911992D01*
X143121900Y-127912006D01*
X130118100Y-127912006D01*
X130118100Y-127912004D01*
X130090568Y-127738178D01*
X130036184Y-127570799D01*
X129956285Y-127413988D01*
X129852839Y-127271607D01*
X129852832Y-127271599D01*
X129728400Y-127147167D01*
X129728392Y-127147160D01*
X129586014Y-127043716D01*
X129429207Y-126963819D01*
X129429206Y-126963818D01*
X129429201Y-126963816D01*
X129370223Y-126944653D01*
X129261824Y-126909432D01*
X129261821Y-126909431D01*
X129088007Y-126881901D01*
X129087997Y-126881900D01*
X129087996Y-126881900D01*
X128912004Y-126881900D01*
X128912002Y-126881900D01*
X128911992Y-126881901D01*
X128738178Y-126909431D01*
X128738175Y-126909432D01*
X128570804Y-126963814D01*
X128570792Y-126963819D01*
X128413985Y-127043716D01*
X128271607Y-127147160D01*
X128271599Y-127147167D01*
X128147167Y-127271599D01*
X128147160Y-127271607D01*
X128043716Y-127413985D01*
X127963819Y-127570792D01*
X127963814Y-127570804D01*
X127909432Y-127738175D01*
X127909431Y-127738178D01*
X127881901Y-127911992D01*
X127881900Y-127912006D01*
X117953345Y-127912006D01*
X116662805Y-126621466D01*
X116644499Y-126577272D01*
X116644499Y-125372006D01*
X127881900Y-125372006D01*
X127881900Y-125547993D01*
X127881901Y-125548007D01*
X127909431Y-125721821D01*
X127909432Y-125721824D01*
X127963814Y-125889195D01*
X127963816Y-125889201D01*
X127963818Y-125889206D01*
X127963819Y-125889207D01*
X128043716Y-126046014D01*
X128147160Y-126188392D01*
X128147167Y-126188400D01*
X128271599Y-126312832D01*
X128271607Y-126312839D01*
X128413988Y-126416285D01*
X128570799Y-126496184D01*
X128738178Y-126550568D01*
X128912004Y-126578100D01*
X128912006Y-126578100D01*
X129087994Y-126578100D01*
X129087996Y-126578100D01*
X129261822Y-126550568D01*
X129429201Y-126496184D01*
X129586012Y-126416285D01*
X129728393Y-126312839D01*
X129852839Y-126188393D01*
X129956285Y-126046012D01*
X130036184Y-125889201D01*
X130090568Y-125721822D01*
X130118100Y-125547996D01*
X130118100Y-125372006D01*
X143121900Y-125372006D01*
X143121900Y-125547993D01*
X143121901Y-125548007D01*
X143149431Y-125721821D01*
X143149432Y-125721824D01*
X143203814Y-125889195D01*
X143203816Y-125889201D01*
X143203818Y-125889206D01*
X143203819Y-125889207D01*
X143283716Y-126046014D01*
X143387160Y-126188392D01*
X143387167Y-126188400D01*
X143511599Y-126312832D01*
X143511607Y-126312839D01*
X143653988Y-126416285D01*
X143810799Y-126496184D01*
X143978178Y-126550568D01*
X144152004Y-126578100D01*
X144152006Y-126578100D01*
X144327994Y-126578100D01*
X144327996Y-126578100D01*
X144501822Y-126550568D01*
X144669201Y-126496184D01*
X144826012Y-126416285D01*
X144968393Y-126312839D01*
X145092839Y-126188393D01*
X145196285Y-126046012D01*
X145276184Y-125889201D01*
X145330568Y-125721822D01*
X145358100Y-125547996D01*
X145358100Y-125372004D01*
X145330568Y-125198178D01*
X145276184Y-125030799D01*
X145196285Y-124873988D01*
X145092839Y-124731607D01*
X145092832Y-124731599D01*
X144968400Y-124607167D01*
X144968392Y-124607160D01*
X144826014Y-124503716D01*
X144669207Y-124423819D01*
X144669206Y-124423818D01*
X144669201Y-124423816D01*
X144669195Y-124423814D01*
X144501824Y-124369432D01*
X144501821Y-124369431D01*
X144328007Y-124341901D01*
X144327997Y-124341900D01*
X144327996Y-124341900D01*
X144152004Y-124341900D01*
X144152002Y-124341900D01*
X144151992Y-124341901D01*
X143978178Y-124369431D01*
X143978175Y-124369432D01*
X143810804Y-124423814D01*
X143810792Y-124423819D01*
X143653985Y-124503716D01*
X143511607Y-124607160D01*
X143511599Y-124607167D01*
X143387167Y-124731599D01*
X143387160Y-124731607D01*
X143283716Y-124873985D01*
X143203819Y-125030792D01*
X143203814Y-125030804D01*
X143149432Y-125198175D01*
X143149431Y-125198178D01*
X143121901Y-125371992D01*
X143121900Y-125372006D01*
X130118100Y-125372006D01*
X130118100Y-125372004D01*
X130090568Y-125198178D01*
X130036184Y-125030799D01*
X129956285Y-124873988D01*
X129852839Y-124731607D01*
X129852832Y-124731599D01*
X129728400Y-124607167D01*
X129728392Y-124607160D01*
X129586014Y-124503716D01*
X129429207Y-124423819D01*
X129429206Y-124423818D01*
X129429201Y-124423816D01*
X129429195Y-124423814D01*
X129261824Y-124369432D01*
X129261821Y-124369431D01*
X129088007Y-124341901D01*
X129087997Y-124341900D01*
X129087996Y-124341900D01*
X128912004Y-124341900D01*
X128912002Y-124341900D01*
X128911992Y-124341901D01*
X128738178Y-124369431D01*
X128738175Y-124369432D01*
X128570804Y-124423814D01*
X128570792Y-124423819D01*
X128413985Y-124503716D01*
X128271607Y-124607160D01*
X128271599Y-124607167D01*
X128147167Y-124731599D01*
X128147160Y-124731607D01*
X128043716Y-124873985D01*
X127963819Y-125030792D01*
X127963814Y-125030804D01*
X127909432Y-125198175D01*
X127909431Y-125198178D01*
X127881901Y-125371992D01*
X127881900Y-125372006D01*
X116644499Y-125372006D01*
X116644499Y-125124935D01*
X116644498Y-125124931D01*
X116630658Y-125055348D01*
X116629734Y-125050699D01*
X116629732Y-125050696D01*
X116573484Y-124966515D01*
X116489302Y-124910266D01*
X116489300Y-124910265D01*
X116415067Y-124895500D01*
X114664935Y-124895500D01*
X114664931Y-124895501D01*
X114584661Y-124911467D01*
X114584322Y-124909764D01*
X114544070Y-124909755D01*
X114510252Y-124875923D01*
X114505500Y-124852018D01*
X114505500Y-122832006D01*
X127881900Y-122832006D01*
X127881900Y-123007993D01*
X127881901Y-123008007D01*
X127909431Y-123181821D01*
X127909432Y-123181824D01*
X127963814Y-123349195D01*
X127963816Y-123349201D01*
X127963818Y-123349206D01*
X127963819Y-123349207D01*
X128043716Y-123506014D01*
X128147160Y-123648392D01*
X128147167Y-123648400D01*
X128271599Y-123772832D01*
X128271607Y-123772839D01*
X128413988Y-123876285D01*
X128570799Y-123956184D01*
X128738178Y-124010568D01*
X128912004Y-124038100D01*
X128912006Y-124038100D01*
X129087994Y-124038100D01*
X129087996Y-124038100D01*
X129261822Y-124010568D01*
X129429201Y-123956184D01*
X129586012Y-123876285D01*
X129728393Y-123772839D01*
X129852839Y-123648393D01*
X129956285Y-123506012D01*
X130036184Y-123349201D01*
X130090568Y-123181822D01*
X130118100Y-123007996D01*
X130118100Y-122832006D01*
X143121900Y-122832006D01*
X143121900Y-123007993D01*
X143121901Y-123008007D01*
X143149431Y-123181821D01*
X143149432Y-123181824D01*
X143203814Y-123349195D01*
X143203816Y-123349201D01*
X143203818Y-123349206D01*
X143203819Y-123349207D01*
X143283716Y-123506014D01*
X143387160Y-123648392D01*
X143387167Y-123648400D01*
X143511599Y-123772832D01*
X143511607Y-123772839D01*
X143653988Y-123876285D01*
X143810799Y-123956184D01*
X143978178Y-124010568D01*
X144152004Y-124038100D01*
X144152006Y-124038100D01*
X144327994Y-124038100D01*
X144327996Y-124038100D01*
X144501822Y-124010568D01*
X144669201Y-123956184D01*
X144826012Y-123876285D01*
X144968393Y-123772839D01*
X145092839Y-123648393D01*
X145196285Y-123506012D01*
X145276184Y-123349201D01*
X145330568Y-123181822D01*
X145358100Y-123007996D01*
X145358100Y-122832004D01*
X145330568Y-122658178D01*
X145276184Y-122490799D01*
X145196285Y-122333988D01*
X145092839Y-122191607D01*
X145092832Y-122191599D01*
X144968400Y-122067167D01*
X144968392Y-122067160D01*
X144826014Y-121963716D01*
X144669207Y-121883819D01*
X144669206Y-121883818D01*
X144669201Y-121883816D01*
X144642274Y-121875067D01*
X144501824Y-121829432D01*
X144501821Y-121829431D01*
X144328007Y-121801901D01*
X144327997Y-121801900D01*
X144327996Y-121801900D01*
X144152004Y-121801900D01*
X144152002Y-121801900D01*
X144151992Y-121801901D01*
X143978178Y-121829431D01*
X143978175Y-121829432D01*
X143810804Y-121883814D01*
X143810792Y-121883819D01*
X143653985Y-121963716D01*
X143511607Y-122067160D01*
X143511599Y-122067167D01*
X143387167Y-122191599D01*
X143387160Y-122191607D01*
X143283716Y-122333985D01*
X143203819Y-122490792D01*
X143203814Y-122490804D01*
X143149432Y-122658175D01*
X143149431Y-122658178D01*
X143121901Y-122831992D01*
X143121900Y-122832006D01*
X130118100Y-122832006D01*
X130118100Y-122832004D01*
X130090568Y-122658178D01*
X130036184Y-122490799D01*
X129956285Y-122333988D01*
X129852839Y-122191607D01*
X129852832Y-122191599D01*
X129728400Y-122067167D01*
X129728392Y-122067160D01*
X129586014Y-121963716D01*
X129429207Y-121883819D01*
X129429206Y-121883818D01*
X129429201Y-121883816D01*
X129402274Y-121875067D01*
X129261824Y-121829432D01*
X129261821Y-121829431D01*
X129088007Y-121801901D01*
X129087997Y-121801900D01*
X129087996Y-121801900D01*
X128912004Y-121801900D01*
X128912002Y-121801900D01*
X128911992Y-121801901D01*
X128738178Y-121829431D01*
X128738175Y-121829432D01*
X128570804Y-121883814D01*
X128570792Y-121883819D01*
X128413985Y-121963716D01*
X128271607Y-122067160D01*
X128271599Y-122067167D01*
X128147167Y-122191599D01*
X128147160Y-122191607D01*
X128043716Y-122333985D01*
X127963819Y-122490792D01*
X127963814Y-122490804D01*
X127909432Y-122658175D01*
X127909431Y-122658178D01*
X127881901Y-122831992D01*
X127881900Y-122832006D01*
X114505500Y-122832006D01*
X114505500Y-122147981D01*
X114523806Y-122103787D01*
X114568000Y-122085481D01*
X114584610Y-122088785D01*
X114584661Y-122088533D01*
X114590698Y-122089733D01*
X114590699Y-122089734D01*
X114664933Y-122104500D01*
X116415066Y-122104499D01*
X116489301Y-122089734D01*
X116573484Y-122033484D01*
X116629734Y-121949301D01*
X116644500Y-121875067D01*
X116644500Y-121417000D01*
X116662806Y-121372806D01*
X116707000Y-121354500D01*
X118266671Y-121354500D01*
X118266676Y-121354499D01*
X118293460Y-121347321D01*
X118356832Y-121330341D01*
X118437668Y-121283671D01*
X119429333Y-120292006D01*
X127881900Y-120292006D01*
X127881900Y-120467993D01*
X127881901Y-120468007D01*
X127909431Y-120641821D01*
X127909432Y-120641824D01*
X127941774Y-120741362D01*
X127963816Y-120809201D01*
X127963818Y-120809206D01*
X127963819Y-120809207D01*
X128043716Y-120966014D01*
X128147160Y-121108392D01*
X128147167Y-121108400D01*
X128271599Y-121232832D01*
X128271607Y-121232839D01*
X128413988Y-121336285D01*
X128570799Y-121416184D01*
X128738178Y-121470568D01*
X128912004Y-121498100D01*
X128912006Y-121498100D01*
X129087994Y-121498100D01*
X129087996Y-121498100D01*
X129261822Y-121470568D01*
X129429201Y-121416184D01*
X129586012Y-121336285D01*
X129728393Y-121232839D01*
X129852839Y-121108393D01*
X129956285Y-120966012D01*
X130036184Y-120809201D01*
X130090568Y-120641822D01*
X130118100Y-120467996D01*
X130118100Y-120292006D01*
X143121900Y-120292006D01*
X143121900Y-120467993D01*
X143121901Y-120468007D01*
X143149431Y-120641821D01*
X143149432Y-120641824D01*
X143181774Y-120741362D01*
X143203816Y-120809201D01*
X143203818Y-120809206D01*
X143203819Y-120809207D01*
X143283716Y-120966014D01*
X143387160Y-121108392D01*
X143387167Y-121108400D01*
X143511599Y-121232832D01*
X143511607Y-121232839D01*
X143653988Y-121336285D01*
X143810799Y-121416184D01*
X143978178Y-121470568D01*
X144152004Y-121498100D01*
X144152006Y-121498100D01*
X144327994Y-121498100D01*
X144327996Y-121498100D01*
X144501822Y-121470568D01*
X144669201Y-121416184D01*
X144826012Y-121336285D01*
X144968393Y-121232839D01*
X145092839Y-121108393D01*
X145196285Y-120966012D01*
X145276184Y-120809201D01*
X145330568Y-120641822D01*
X145358100Y-120467996D01*
X145358100Y-120292004D01*
X145330568Y-120118178D01*
X145276184Y-119950799D01*
X145196285Y-119793988D01*
X145092839Y-119651607D01*
X145092832Y-119651599D01*
X144968400Y-119527167D01*
X144968392Y-119527160D01*
X144826014Y-119423716D01*
X144669207Y-119343819D01*
X144669206Y-119343818D01*
X144669201Y-119343816D01*
X144669195Y-119343814D01*
X144501824Y-119289432D01*
X144501821Y-119289431D01*
X144328007Y-119261901D01*
X144327997Y-119261900D01*
X144327996Y-119261900D01*
X144152004Y-119261900D01*
X144152002Y-119261900D01*
X144151992Y-119261901D01*
X143978178Y-119289431D01*
X143978175Y-119289432D01*
X143810804Y-119343814D01*
X143810792Y-119343819D01*
X143653985Y-119423716D01*
X143511607Y-119527160D01*
X143511599Y-119527167D01*
X143387167Y-119651599D01*
X143387160Y-119651607D01*
X143283716Y-119793985D01*
X143203819Y-119950792D01*
X143203814Y-119950804D01*
X143149432Y-120118175D01*
X143149431Y-120118178D01*
X143121901Y-120291992D01*
X143121900Y-120292006D01*
X130118100Y-120292006D01*
X130118100Y-120292004D01*
X130090568Y-120118178D01*
X130036184Y-119950799D01*
X129956285Y-119793988D01*
X129852839Y-119651607D01*
X129852832Y-119651599D01*
X129728400Y-119527167D01*
X129728392Y-119527160D01*
X129586014Y-119423716D01*
X129429207Y-119343819D01*
X129429206Y-119343818D01*
X129429201Y-119343816D01*
X129429195Y-119343814D01*
X129261824Y-119289432D01*
X129261821Y-119289431D01*
X129088007Y-119261901D01*
X129087997Y-119261900D01*
X129087996Y-119261900D01*
X128912004Y-119261900D01*
X128912002Y-119261900D01*
X128911992Y-119261901D01*
X128738178Y-119289431D01*
X128738175Y-119289432D01*
X128570804Y-119343814D01*
X128570792Y-119343819D01*
X128413985Y-119423716D01*
X128271607Y-119527160D01*
X128271599Y-119527167D01*
X128147167Y-119651599D01*
X128147160Y-119651607D01*
X128043716Y-119793985D01*
X127963819Y-119950792D01*
X127963814Y-119950804D01*
X127909432Y-120118175D01*
X127909431Y-120118178D01*
X127881901Y-120291992D01*
X127881900Y-120292006D01*
X119429333Y-120292006D01*
X121969332Y-117752006D01*
X127881900Y-117752006D01*
X127881900Y-117927993D01*
X127881901Y-117928007D01*
X127909431Y-118101821D01*
X127909432Y-118101824D01*
X127963814Y-118269195D01*
X127963816Y-118269201D01*
X127963818Y-118269206D01*
X127963819Y-118269207D01*
X128043716Y-118426014D01*
X128147160Y-118568392D01*
X128147167Y-118568400D01*
X128271599Y-118692832D01*
X128271607Y-118692839D01*
X128413988Y-118796285D01*
X128570799Y-118876184D01*
X128738178Y-118930568D01*
X128912004Y-118958100D01*
X128912006Y-118958100D01*
X129087994Y-118958100D01*
X129087996Y-118958100D01*
X129261822Y-118930568D01*
X129429201Y-118876184D01*
X129586012Y-118796285D01*
X129728393Y-118692839D01*
X129852839Y-118568393D01*
X129956285Y-118426012D01*
X130036184Y-118269201D01*
X130090568Y-118101822D01*
X130118100Y-117927996D01*
X130118100Y-117752006D01*
X143121900Y-117752006D01*
X143121900Y-117927993D01*
X143121901Y-117928007D01*
X143149431Y-118101821D01*
X143149432Y-118101824D01*
X143203814Y-118269195D01*
X143203816Y-118269201D01*
X143203818Y-118269206D01*
X143203819Y-118269207D01*
X143283716Y-118426014D01*
X143387160Y-118568392D01*
X143387167Y-118568400D01*
X143511599Y-118692832D01*
X143511607Y-118692839D01*
X143653988Y-118796285D01*
X143810799Y-118876184D01*
X143978178Y-118930568D01*
X144152004Y-118958100D01*
X144152006Y-118958100D01*
X144327994Y-118958100D01*
X144327996Y-118958100D01*
X144501822Y-118930568D01*
X144669201Y-118876184D01*
X144826012Y-118796285D01*
X144968393Y-118692839D01*
X145092839Y-118568393D01*
X145196285Y-118426012D01*
X145276184Y-118269201D01*
X145330568Y-118101822D01*
X145358100Y-117927996D01*
X145358100Y-117752004D01*
X145330568Y-117578178D01*
X145276184Y-117410799D01*
X145196285Y-117253988D01*
X145092839Y-117111607D01*
X145092832Y-117111599D01*
X144968400Y-116987167D01*
X144968392Y-116987160D01*
X144826014Y-116883716D01*
X144669207Y-116803819D01*
X144669206Y-116803818D01*
X144669201Y-116803816D01*
X144669195Y-116803814D01*
X144501824Y-116749432D01*
X144501821Y-116749431D01*
X144328007Y-116721901D01*
X144327997Y-116721900D01*
X144327996Y-116721900D01*
X144152004Y-116721900D01*
X144152002Y-116721900D01*
X144151992Y-116721901D01*
X143978178Y-116749431D01*
X143978175Y-116749432D01*
X143810804Y-116803814D01*
X143810792Y-116803819D01*
X143653985Y-116883716D01*
X143511607Y-116987160D01*
X143511599Y-116987167D01*
X143387167Y-117111599D01*
X143387160Y-117111607D01*
X143283716Y-117253985D01*
X143203819Y-117410792D01*
X143203814Y-117410804D01*
X143149432Y-117578175D01*
X143149431Y-117578178D01*
X143121901Y-117751992D01*
X143121900Y-117752006D01*
X130118100Y-117752006D01*
X130118100Y-117752004D01*
X130090568Y-117578178D01*
X130036184Y-117410799D01*
X129956285Y-117253988D01*
X129852839Y-117111607D01*
X129852832Y-117111599D01*
X129728400Y-116987167D01*
X129728392Y-116987160D01*
X129586014Y-116883716D01*
X129429207Y-116803819D01*
X129429206Y-116803818D01*
X129429201Y-116803816D01*
X129429195Y-116803814D01*
X129261824Y-116749432D01*
X129261821Y-116749431D01*
X129088007Y-116721901D01*
X129087997Y-116721900D01*
X129087996Y-116721900D01*
X128912004Y-116721900D01*
X128912002Y-116721900D01*
X128911992Y-116721901D01*
X128738178Y-116749431D01*
X128738175Y-116749432D01*
X128570804Y-116803814D01*
X128570792Y-116803819D01*
X128413985Y-116883716D01*
X128271607Y-116987160D01*
X128271599Y-116987167D01*
X128147167Y-117111599D01*
X128147160Y-117111607D01*
X128043716Y-117253985D01*
X127963819Y-117410792D01*
X127963814Y-117410804D01*
X127909432Y-117578175D01*
X127909431Y-117578178D01*
X127881901Y-117751992D01*
X127881900Y-117752006D01*
X121969332Y-117752006D01*
X124509332Y-115212006D01*
X127881900Y-115212006D01*
X127881900Y-115387993D01*
X127881901Y-115388007D01*
X127909431Y-115561821D01*
X127909432Y-115561824D01*
X127963814Y-115729195D01*
X127963816Y-115729201D01*
X127963818Y-115729206D01*
X127963819Y-115729207D01*
X128043716Y-115886014D01*
X128147160Y-116028392D01*
X128147167Y-116028400D01*
X128271599Y-116152832D01*
X128271607Y-116152839D01*
X128413988Y-116256285D01*
X128570799Y-116336184D01*
X128738178Y-116390568D01*
X128912004Y-116418100D01*
X128912006Y-116418100D01*
X129087994Y-116418100D01*
X129087996Y-116418100D01*
X129261822Y-116390568D01*
X129429201Y-116336184D01*
X129586012Y-116256285D01*
X129728393Y-116152839D01*
X129852839Y-116028393D01*
X129956285Y-115886012D01*
X130036184Y-115729201D01*
X130090568Y-115561822D01*
X130118100Y-115387996D01*
X130118100Y-115212006D01*
X143121900Y-115212006D01*
X143121900Y-115387993D01*
X143121901Y-115388007D01*
X143149431Y-115561821D01*
X143149432Y-115561824D01*
X143203814Y-115729195D01*
X143203816Y-115729201D01*
X143203818Y-115729206D01*
X143203819Y-115729207D01*
X143283716Y-115886014D01*
X143387160Y-116028392D01*
X143387167Y-116028400D01*
X143511599Y-116152832D01*
X143511607Y-116152839D01*
X143653988Y-116256285D01*
X143810799Y-116336184D01*
X143978178Y-116390568D01*
X144152004Y-116418100D01*
X144152006Y-116418100D01*
X144327994Y-116418100D01*
X144327996Y-116418100D01*
X144501822Y-116390568D01*
X144669201Y-116336184D01*
X144826012Y-116256285D01*
X144968393Y-116152839D01*
X145092839Y-116028393D01*
X145196285Y-115886012D01*
X145276184Y-115729201D01*
X145330568Y-115561822D01*
X145358100Y-115387996D01*
X145358100Y-115212004D01*
X145330568Y-115038178D01*
X145276184Y-114870799D01*
X145196285Y-114713988D01*
X145092839Y-114571607D01*
X145092832Y-114571599D01*
X144968400Y-114447167D01*
X144968392Y-114447160D01*
X144826014Y-114343716D01*
X144669207Y-114263819D01*
X144669206Y-114263818D01*
X144669201Y-114263816D01*
X144669195Y-114263814D01*
X144501824Y-114209432D01*
X144501821Y-114209431D01*
X144328007Y-114181901D01*
X144327997Y-114181900D01*
X144327996Y-114181900D01*
X144152004Y-114181900D01*
X144152002Y-114181900D01*
X144151992Y-114181901D01*
X143978178Y-114209431D01*
X143978175Y-114209432D01*
X143810804Y-114263814D01*
X143810792Y-114263819D01*
X143653985Y-114343716D01*
X143511607Y-114447160D01*
X143511599Y-114447167D01*
X143387167Y-114571599D01*
X143387160Y-114571607D01*
X143283716Y-114713985D01*
X143203819Y-114870792D01*
X143203814Y-114870804D01*
X143149432Y-115038175D01*
X143149431Y-115038178D01*
X143121901Y-115211992D01*
X143121900Y-115212006D01*
X130118100Y-115212006D01*
X130118100Y-115212004D01*
X130090568Y-115038178D01*
X130036184Y-114870799D01*
X129956285Y-114713988D01*
X129852839Y-114571607D01*
X129852832Y-114571599D01*
X129728400Y-114447167D01*
X129728392Y-114447160D01*
X129586014Y-114343716D01*
X129429207Y-114263819D01*
X129429206Y-114263818D01*
X129429201Y-114263816D01*
X129429195Y-114263814D01*
X129261824Y-114209432D01*
X129261821Y-114209431D01*
X129088007Y-114181901D01*
X129087997Y-114181900D01*
X129087996Y-114181900D01*
X128912004Y-114181900D01*
X128912002Y-114181900D01*
X128911992Y-114181901D01*
X128738178Y-114209431D01*
X128738175Y-114209432D01*
X128570804Y-114263814D01*
X128570792Y-114263819D01*
X128413985Y-114343716D01*
X128271607Y-114447160D01*
X128271599Y-114447167D01*
X128147167Y-114571599D01*
X128147160Y-114571607D01*
X128043716Y-114713985D01*
X127963819Y-114870792D01*
X127963814Y-114870804D01*
X127909432Y-115038175D01*
X127909431Y-115038178D01*
X127881901Y-115211992D01*
X127881900Y-115212006D01*
X124509332Y-115212006D01*
X127049331Y-112672006D01*
X127881900Y-112672006D01*
X127881900Y-112847993D01*
X127881901Y-112848007D01*
X127909431Y-113021821D01*
X127909432Y-113021824D01*
X127963814Y-113189195D01*
X127963816Y-113189201D01*
X127963818Y-113189206D01*
X127963819Y-113189207D01*
X128043716Y-113346014D01*
X128147160Y-113488392D01*
X128147167Y-113488400D01*
X128271599Y-113612832D01*
X128271607Y-113612839D01*
X128413988Y-113716285D01*
X128570799Y-113796184D01*
X128738178Y-113850568D01*
X128912004Y-113878100D01*
X128912006Y-113878100D01*
X129087994Y-113878100D01*
X129087996Y-113878100D01*
X129261822Y-113850568D01*
X129429201Y-113796184D01*
X129586012Y-113716285D01*
X129728393Y-113612839D01*
X129852839Y-113488393D01*
X129956285Y-113346012D01*
X130036184Y-113189201D01*
X130090568Y-113021822D01*
X130118100Y-112847996D01*
X130118100Y-112672006D01*
X143121900Y-112672006D01*
X143121900Y-112847993D01*
X143121901Y-112848007D01*
X143149431Y-113021821D01*
X143149432Y-113021824D01*
X143203814Y-113189195D01*
X143203816Y-113189201D01*
X143203818Y-113189206D01*
X143203819Y-113189207D01*
X143283716Y-113346014D01*
X143387160Y-113488392D01*
X143387167Y-113488400D01*
X143511599Y-113612832D01*
X143511607Y-113612839D01*
X143653988Y-113716285D01*
X143810799Y-113796184D01*
X143978178Y-113850568D01*
X144152004Y-113878100D01*
X144152006Y-113878100D01*
X144327994Y-113878100D01*
X144327996Y-113878100D01*
X144501822Y-113850568D01*
X144669201Y-113796184D01*
X144826012Y-113716285D01*
X144968393Y-113612839D01*
X145092839Y-113488393D01*
X145196285Y-113346012D01*
X145276184Y-113189201D01*
X145330568Y-113021822D01*
X145358100Y-112847996D01*
X145358100Y-112672004D01*
X145330568Y-112498178D01*
X145276184Y-112330799D01*
X145196285Y-112173988D01*
X145092839Y-112031607D01*
X145092832Y-112031599D01*
X144968400Y-111907167D01*
X144968392Y-111907160D01*
X144826014Y-111803716D01*
X144669207Y-111723819D01*
X144669206Y-111723818D01*
X144669201Y-111723816D01*
X144669195Y-111723814D01*
X144501824Y-111669432D01*
X144501821Y-111669431D01*
X144328007Y-111641901D01*
X144327997Y-111641900D01*
X144327996Y-111641900D01*
X144152004Y-111641900D01*
X144152002Y-111641900D01*
X144151992Y-111641901D01*
X143978178Y-111669431D01*
X143978175Y-111669432D01*
X143810804Y-111723814D01*
X143810792Y-111723819D01*
X143653985Y-111803716D01*
X143511607Y-111907160D01*
X143511599Y-111907167D01*
X143387167Y-112031599D01*
X143387160Y-112031607D01*
X143283716Y-112173985D01*
X143203819Y-112330792D01*
X143203814Y-112330804D01*
X143149432Y-112498175D01*
X143149431Y-112498178D01*
X143121901Y-112671992D01*
X143121900Y-112672006D01*
X130118100Y-112672006D01*
X130118100Y-112672004D01*
X130090568Y-112498178D01*
X130036184Y-112330799D01*
X129956285Y-112173988D01*
X129852839Y-112031607D01*
X129852832Y-112031599D01*
X129728400Y-111907167D01*
X129728392Y-111907160D01*
X129586014Y-111803716D01*
X129429207Y-111723819D01*
X129429206Y-111723818D01*
X129429201Y-111723816D01*
X129429195Y-111723814D01*
X129261824Y-111669432D01*
X129261821Y-111669431D01*
X129088007Y-111641901D01*
X129087997Y-111641900D01*
X129087996Y-111641900D01*
X128912004Y-111641900D01*
X128912002Y-111641900D01*
X128911992Y-111641901D01*
X128738178Y-111669431D01*
X128738175Y-111669432D01*
X128570804Y-111723814D01*
X128570792Y-111723819D01*
X128413985Y-111803716D01*
X128271607Y-111907160D01*
X128271599Y-111907167D01*
X128147167Y-112031599D01*
X128147160Y-112031607D01*
X128043716Y-112173985D01*
X127963819Y-112330792D01*
X127963814Y-112330804D01*
X127909432Y-112498175D01*
X127909431Y-112498178D01*
X127881901Y-112671992D01*
X127881900Y-112672006D01*
X127049331Y-112672006D01*
X128468705Y-111252632D01*
X128512898Y-111234327D01*
X128541274Y-111241140D01*
X128570790Y-111256180D01*
X128570794Y-111256181D01*
X128570799Y-111256184D01*
X128738178Y-111310568D01*
X128912004Y-111338100D01*
X128912006Y-111338100D01*
X129087994Y-111338100D01*
X129087996Y-111338100D01*
X129261822Y-111310568D01*
X129429201Y-111256184D01*
X129586012Y-111176285D01*
X129728393Y-111072839D01*
X129852839Y-110948393D01*
X129956285Y-110806012D01*
X130036184Y-110649201D01*
X130090568Y-110481822D01*
X130118100Y-110307996D01*
X130118100Y-110132006D01*
X143121900Y-110132006D01*
X143121900Y-110307993D01*
X143121901Y-110308007D01*
X143149431Y-110481821D01*
X143149432Y-110481824D01*
X143188957Y-110603470D01*
X143203816Y-110649201D01*
X143203818Y-110649206D01*
X143203819Y-110649207D01*
X143283716Y-110806014D01*
X143387160Y-110948392D01*
X143387167Y-110948400D01*
X143511599Y-111072832D01*
X143511607Y-111072839D01*
X143628779Y-111157970D01*
X143653988Y-111176285D01*
X143810799Y-111256184D01*
X143978178Y-111310568D01*
X144152004Y-111338100D01*
X144152006Y-111338100D01*
X144327994Y-111338100D01*
X144327996Y-111338100D01*
X144501822Y-111310568D01*
X144669201Y-111256184D01*
X144826012Y-111176285D01*
X144968393Y-111072839D01*
X145092839Y-110948393D01*
X145196285Y-110806012D01*
X145276184Y-110649201D01*
X145330568Y-110481822D01*
X145358100Y-110307996D01*
X145358100Y-110132004D01*
X145330568Y-109958178D01*
X145276184Y-109790799D01*
X145196285Y-109633988D01*
X145092839Y-109491607D01*
X145092832Y-109491599D01*
X144968400Y-109367167D01*
X144968392Y-109367160D01*
X144826014Y-109263716D01*
X144669207Y-109183819D01*
X144669206Y-109183818D01*
X144669201Y-109183816D01*
X144669195Y-109183814D01*
X144501824Y-109129432D01*
X144501821Y-109129431D01*
X144328007Y-109101901D01*
X144327997Y-109101900D01*
X144327996Y-109101900D01*
X144152004Y-109101900D01*
X144152002Y-109101900D01*
X144151992Y-109101901D01*
X143978178Y-109129431D01*
X143978175Y-109129432D01*
X143810804Y-109183814D01*
X143810792Y-109183819D01*
X143653985Y-109263716D01*
X143511607Y-109367160D01*
X143511599Y-109367167D01*
X143387167Y-109491599D01*
X143387160Y-109491607D01*
X143283716Y-109633985D01*
X143203819Y-109790792D01*
X143203814Y-109790804D01*
X143149432Y-109958175D01*
X143149431Y-109958178D01*
X143121901Y-110131992D01*
X143121900Y-110132006D01*
X130118100Y-110132006D01*
X130118100Y-110132004D01*
X130090568Y-109958178D01*
X130036184Y-109790799D01*
X129956285Y-109633988D01*
X129852839Y-109491607D01*
X129852832Y-109491599D01*
X129728400Y-109367167D01*
X129728392Y-109367160D01*
X129586014Y-109263716D01*
X129429207Y-109183819D01*
X129429206Y-109183818D01*
X129429201Y-109183816D01*
X129429195Y-109183814D01*
X129261824Y-109129432D01*
X129261821Y-109129431D01*
X129088007Y-109101901D01*
X129087997Y-109101900D01*
X129087996Y-109101900D01*
X128912004Y-109101900D01*
X128912002Y-109101900D01*
X128911992Y-109101901D01*
X128738178Y-109129431D01*
X128738175Y-109129432D01*
X128570804Y-109183814D01*
X128570792Y-109183819D01*
X128413985Y-109263716D01*
X128271607Y-109367160D01*
X128271599Y-109367167D01*
X128147167Y-109491599D01*
X128147160Y-109491607D01*
X128043716Y-109633985D01*
X127963819Y-109790792D01*
X127963814Y-109790804D01*
X127909432Y-109958175D01*
X127909431Y-109958178D01*
X127881901Y-110131992D01*
X127881900Y-110132006D01*
X127881900Y-110307993D01*
X127881901Y-110308007D01*
X127909431Y-110481821D01*
X127909432Y-110481824D01*
X127963815Y-110649198D01*
X127963819Y-110649210D01*
X127978859Y-110678726D01*
X127982612Y-110726414D01*
X127967365Y-110751294D01*
X118091467Y-120627194D01*
X118047273Y-120645500D01*
X116706999Y-120645500D01*
X116662805Y-120627194D01*
X116644499Y-120583000D01*
X116644499Y-120124935D01*
X116644498Y-120124931D01*
X116643154Y-120118175D01*
X116629734Y-120050699D01*
X116580102Y-119976420D01*
X116573484Y-119966515D01*
X116489302Y-119910266D01*
X116489300Y-119910265D01*
X116415067Y-119895500D01*
X114664935Y-119895500D01*
X114664931Y-119895501D01*
X114584661Y-119911467D01*
X114584322Y-119909764D01*
X114544070Y-119909755D01*
X114510252Y-119875923D01*
X114505500Y-119852018D01*
X114505500Y-117021727D01*
X114523806Y-116977533D01*
X115928533Y-115572806D01*
X115972727Y-115554500D01*
X116073000Y-115554500D01*
X116073001Y-115554500D01*
X116214029Y-115516712D01*
X116340471Y-115443711D01*
X116443711Y-115340471D01*
X116516712Y-115214029D01*
X116554500Y-115073001D01*
X116554500Y-114926999D01*
X116516712Y-114785971D01*
X116443711Y-114659529D01*
X116443709Y-114659527D01*
X116443706Y-114659523D01*
X116340476Y-114556293D01*
X116340472Y-114556290D01*
X116340471Y-114556289D01*
X116277250Y-114519788D01*
X116214028Y-114483287D01*
X116214025Y-114483286D01*
X116073007Y-114445501D01*
X116073002Y-114445500D01*
X116073001Y-114445500D01*
X115926999Y-114445500D01*
X115926998Y-114445500D01*
X115926992Y-114445501D01*
X115785974Y-114483286D01*
X115785971Y-114483287D01*
X115659527Y-114556290D01*
X115659523Y-114556293D01*
X115556293Y-114659523D01*
X115556290Y-114659527D01*
X115483287Y-114785971D01*
X115483286Y-114785974D01*
X115445501Y-114926992D01*
X115445500Y-114927000D01*
X115445500Y-115027273D01*
X115427194Y-115071467D01*
X113867329Y-116631331D01*
X113820659Y-116712168D01*
X113820658Y-116712170D01*
X113796500Y-116802323D01*
X113796500Y-120090791D01*
X113778194Y-120134985D01*
X113734000Y-120153291D01*
X113697263Y-120141355D01*
X113578884Y-120055347D01*
X113423981Y-119976420D01*
X113423979Y-119976419D01*
X113258636Y-119922696D01*
X113258637Y-119922696D01*
X113086937Y-119895501D01*
X113086927Y-119895500D01*
X113086926Y-119895500D01*
X112913074Y-119895500D01*
X112913072Y-119895500D01*
X112913062Y-119895501D01*
X112741362Y-119922696D01*
X112576020Y-119976419D01*
X112576012Y-119976423D01*
X112430244Y-120050696D01*
X112421116Y-120055347D01*
X112302737Y-120141355D01*
X112256223Y-120152522D01*
X112215436Y-120127528D01*
X112203500Y-120090791D01*
X112203500Y-114323726D01*
X112221806Y-114279532D01*
X113928532Y-112572806D01*
X113972726Y-112554500D01*
X114073000Y-112554500D01*
X114073001Y-112554500D01*
X114214029Y-112516712D01*
X114340471Y-112443711D01*
X114443711Y-112340471D01*
X114516712Y-112214029D01*
X114554500Y-112073001D01*
X114554500Y-111926999D01*
X114521467Y-111803716D01*
X114516713Y-111785974D01*
X114516712Y-111785971D01*
X114443711Y-111659529D01*
X114443709Y-111659527D01*
X114443706Y-111659523D01*
X114340476Y-111556293D01*
X114340472Y-111556290D01*
X114340471Y-111556289D01*
X114277250Y-111519788D01*
X114214028Y-111483287D01*
X114214025Y-111483286D01*
X114073007Y-111445501D01*
X114073002Y-111445500D01*
X114073001Y-111445500D01*
X113926999Y-111445500D01*
X113926998Y-111445500D01*
X113926992Y-111445501D01*
X113785974Y-111483286D01*
X113785971Y-111483287D01*
X113659527Y-111556290D01*
X113659523Y-111556293D01*
X113556293Y-111659523D01*
X113556290Y-111659527D01*
X113483287Y-111785971D01*
X113483286Y-111785974D01*
X113445501Y-111926992D01*
X113445500Y-111927000D01*
X113445500Y-112027272D01*
X113427194Y-112071466D01*
X111622540Y-113876119D01*
X111622541Y-113876120D01*
X111565328Y-113933333D01*
X111518659Y-114014168D01*
X111518658Y-114014170D01*
X111494500Y-114104323D01*
X111494500Y-120352424D01*
X111476194Y-120396618D01*
X111432000Y-120414924D01*
X111387806Y-120396618D01*
X111381437Y-120389161D01*
X111302465Y-120280467D01*
X111302458Y-120280459D01*
X111179540Y-120157541D01*
X111179532Y-120157534D01*
X111038886Y-120055348D01*
X110883987Y-119976423D01*
X110883979Y-119976419D01*
X110718636Y-119922696D01*
X110718637Y-119922696D01*
X110546937Y-119895501D01*
X110546927Y-119895500D01*
X110546926Y-119895500D01*
X110373074Y-119895500D01*
X110373072Y-119895500D01*
X110373062Y-119895501D01*
X110201362Y-119922696D01*
X110036020Y-119976419D01*
X110036012Y-119976423D01*
X109881113Y-120055348D01*
X109740467Y-120157534D01*
X109740459Y-120157541D01*
X109617541Y-120280459D01*
X109617534Y-120280467D01*
X109515348Y-120421113D01*
X109436423Y-120576012D01*
X109436419Y-120576020D01*
X109382696Y-120741362D01*
X109355501Y-120913062D01*
X109355500Y-120913076D01*
X107354500Y-120913076D01*
X107354500Y-113455570D01*
X107372806Y-113411376D01*
X107443711Y-113340471D01*
X107516712Y-113214029D01*
X107554500Y-113073001D01*
X107554500Y-112926999D01*
X107516712Y-112785971D01*
X107443711Y-112659529D01*
X107443709Y-112659527D01*
X107443706Y-112659523D01*
X107340476Y-112556293D01*
X107340472Y-112556290D01*
X107340471Y-112556289D01*
X107271921Y-112516712D01*
X107214028Y-112483287D01*
X107214025Y-112483286D01*
X107073007Y-112445501D01*
X107073002Y-112445500D01*
X107073001Y-112445500D01*
X106926999Y-112445500D01*
X106926998Y-112445500D01*
X106926992Y-112445501D01*
X106785974Y-112483286D01*
X106785971Y-112483287D01*
X106659527Y-112556290D01*
X106659523Y-112556293D01*
X106556293Y-112659523D01*
X106556290Y-112659527D01*
X106483287Y-112785971D01*
X106483286Y-112785974D01*
X106445501Y-112926992D01*
X106445500Y-112927000D01*
X105354500Y-112927000D01*
X105354500Y-102147000D01*
X109685500Y-102147000D01*
X109685500Y-102292999D01*
X109685501Y-102293007D01*
X109723286Y-102434025D01*
X109723287Y-102434028D01*
X109723288Y-102434029D01*
X109790440Y-102550341D01*
X109796290Y-102560472D01*
X109796293Y-102560476D01*
X109899523Y-102663706D01*
X109899527Y-102663709D01*
X109899529Y-102663711D01*
X110025971Y-102736712D01*
X110025974Y-102736713D01*
X110083027Y-102752000D01*
X110166999Y-102774500D01*
X110167000Y-102774500D01*
X110313000Y-102774500D01*
X110313001Y-102774500D01*
X110454029Y-102736712D01*
X110580471Y-102663711D01*
X110651376Y-102592806D01*
X110695570Y-102574500D01*
X113286671Y-102574500D01*
X113286676Y-102574499D01*
X113313460Y-102567321D01*
X113376832Y-102550341D01*
X113457668Y-102503671D01*
X119457665Y-96503672D01*
X119457668Y-96503671D01*
X119523671Y-96437668D01*
X119532384Y-96422575D01*
X119537160Y-96417423D01*
X119552994Y-96410147D01*
X119566822Y-96399537D01*
X119574025Y-96400485D01*
X119580627Y-96397452D01*
X119596970Y-96403505D01*
X119614249Y-96405780D01*
X119618672Y-96411543D01*
X119625484Y-96414067D01*
X119632759Y-96429901D01*
X119643370Y-96443729D01*
X119645080Y-96456718D01*
X119645455Y-96457534D01*
X119645257Y-96458066D01*
X119645500Y-96459907D01*
X119645500Y-97410269D01*
X119627194Y-97454463D01*
X119583000Y-97472769D01*
X119566824Y-97470639D01*
X119473007Y-97445501D01*
X119473002Y-97445500D01*
X119473001Y-97445500D01*
X119326999Y-97445500D01*
X119326998Y-97445500D01*
X119326992Y-97445501D01*
X119185974Y-97483286D01*
X119185971Y-97483287D01*
X119059527Y-97556290D01*
X119059523Y-97556293D01*
X118956293Y-97659523D01*
X118956290Y-97659527D01*
X118883287Y-97785971D01*
X118883286Y-97785974D01*
X118845501Y-97926992D01*
X118845500Y-97927000D01*
X118845500Y-98072999D01*
X118845501Y-98073007D01*
X118883286Y-98214025D01*
X118883287Y-98214028D01*
X118883288Y-98214029D01*
X118956289Y-98340471D01*
X119013045Y-98397227D01*
X119031351Y-98441420D01*
X119013046Y-98485615D01*
X119013045Y-98485615D01*
X117871467Y-99627194D01*
X117827273Y-99645500D01*
X117455570Y-99645500D01*
X117411376Y-99627194D01*
X117340472Y-99556290D01*
X117340471Y-99556289D01*
X117277250Y-99519788D01*
X117214028Y-99483287D01*
X117214025Y-99483286D01*
X117073007Y-99445501D01*
X117073002Y-99445500D01*
X117073001Y-99445500D01*
X116926999Y-99445500D01*
X116926998Y-99445500D01*
X116926992Y-99445501D01*
X116785974Y-99483286D01*
X116785971Y-99483287D01*
X116659527Y-99556290D01*
X116659523Y-99556293D01*
X116556293Y-99659523D01*
X116556290Y-99659527D01*
X116483287Y-99785971D01*
X116483286Y-99785974D01*
X116445501Y-99926992D01*
X116445500Y-99927000D01*
X116445500Y-100072999D01*
X116445501Y-100073007D01*
X116483286Y-100214025D01*
X116483287Y-100214026D01*
X116483288Y-100214029D01*
X116556289Y-100340471D01*
X116556290Y-100340472D01*
X116556293Y-100340476D01*
X116659523Y-100443706D01*
X116659527Y-100443709D01*
X116659529Y-100443711D01*
X116738331Y-100489207D01*
X116785971Y-100516712D01*
X116785974Y-100516713D01*
X116872274Y-100539836D01*
X116926999Y-100554500D01*
X116927000Y-100554500D01*
X117073000Y-100554500D01*
X117073001Y-100554500D01*
X117214029Y-100516712D01*
X117340471Y-100443711D01*
X117411376Y-100372806D01*
X117455570Y-100354500D01*
X118046671Y-100354500D01*
X118046676Y-100354499D01*
X118073460Y-100347321D01*
X118136832Y-100330341D01*
X118217668Y-100283671D01*
X119538806Y-98962533D01*
X119583000Y-98944227D01*
X119627194Y-98962533D01*
X119645500Y-99006727D01*
X119645500Y-99827273D01*
X119627194Y-99871467D01*
X111533828Y-107964832D01*
X111487158Y-108045669D01*
X111487157Y-108045671D01*
X111462999Y-108135824D01*
X111462999Y-110361928D01*
X111444693Y-110406122D01*
X111373792Y-110477022D01*
X111373789Y-110477026D01*
X111300786Y-110603470D01*
X111300785Y-110603473D01*
X111263000Y-110744491D01*
X111262999Y-110744499D01*
X111262999Y-110890498D01*
X111263000Y-110890506D01*
X111300785Y-111031524D01*
X111300786Y-111031527D01*
X111373789Y-111157971D01*
X111373792Y-111157975D01*
X111477022Y-111261205D01*
X111477026Y-111261208D01*
X111477028Y-111261210D01*
X111562519Y-111310568D01*
X111603470Y-111334211D01*
X111603473Y-111334212D01*
X111689773Y-111357335D01*
X111744498Y-111371999D01*
X111744499Y-111371999D01*
X111890499Y-111371999D01*
X111890500Y-111371999D01*
X112031528Y-111334211D01*
X112157970Y-111261210D01*
X112261210Y-111157970D01*
X112334211Y-111031528D01*
X112371999Y-110890500D01*
X112371999Y-110744498D01*
X112346466Y-110649207D01*
X112334212Y-110603473D01*
X112334211Y-110603470D01*
X112261210Y-110477028D01*
X112261208Y-110477026D01*
X112261205Y-110477022D01*
X112190305Y-110406122D01*
X112171999Y-110361928D01*
X112171999Y-108355228D01*
X112190305Y-108311034D01*
X113730328Y-106771011D01*
X127832400Y-106771011D01*
X127832400Y-107528000D01*
X128514808Y-107528000D01*
X128492000Y-107613120D01*
X128492000Y-107746880D01*
X128514808Y-107832000D01*
X127832401Y-107832000D01*
X127832401Y-108588988D01*
X127835349Y-108614407D01*
X127835349Y-108614408D01*
X127881257Y-108718378D01*
X127961621Y-108798742D01*
X128065594Y-108844651D01*
X128091011Y-108847599D01*
X128848000Y-108847599D01*
X128848000Y-108165192D01*
X128933120Y-108188000D01*
X129066880Y-108188000D01*
X129152000Y-108165192D01*
X129152000Y-108847599D01*
X129908988Y-108847599D01*
X129934407Y-108844650D01*
X129934408Y-108844650D01*
X130038378Y-108798742D01*
X130118742Y-108718378D01*
X130164651Y-108614405D01*
X130167600Y-108588988D01*
X130167600Y-107832000D01*
X129485192Y-107832000D01*
X129508000Y-107746880D01*
X129508000Y-107613120D01*
X129502342Y-107592006D01*
X143121900Y-107592006D01*
X143121900Y-107767993D01*
X143121901Y-107768007D01*
X143149431Y-107941821D01*
X143149432Y-107941824D01*
X143183173Y-108045669D01*
X143203816Y-108109201D01*
X143203818Y-108109206D01*
X143203819Y-108109207D01*
X143283716Y-108266014D01*
X143387160Y-108408392D01*
X143387167Y-108408400D01*
X143511599Y-108532832D01*
X143511607Y-108532839D01*
X143623875Y-108614407D01*
X143653988Y-108636285D01*
X143810799Y-108716184D01*
X143978178Y-108770568D01*
X144152004Y-108798100D01*
X144152006Y-108798100D01*
X144327994Y-108798100D01*
X144327996Y-108798100D01*
X144501822Y-108770568D01*
X144669201Y-108716184D01*
X144826012Y-108636285D01*
X144968393Y-108532839D01*
X145092839Y-108408393D01*
X145196285Y-108266012D01*
X145276184Y-108109201D01*
X145330568Y-107941822D01*
X145358100Y-107767996D01*
X145358100Y-107592004D01*
X145330568Y-107418178D01*
X145276184Y-107250799D01*
X145196285Y-107093988D01*
X145092839Y-106951607D01*
X145092832Y-106951599D01*
X144968400Y-106827167D01*
X144968392Y-106827160D01*
X144826014Y-106723716D01*
X144669207Y-106643819D01*
X144669206Y-106643818D01*
X144669201Y-106643816D01*
X144669195Y-106643814D01*
X144501824Y-106589432D01*
X144501821Y-106589431D01*
X144328007Y-106561901D01*
X144327997Y-106561900D01*
X144327996Y-106561900D01*
X144152004Y-106561900D01*
X144152002Y-106561900D01*
X144151992Y-106561901D01*
X143978178Y-106589431D01*
X143978175Y-106589432D01*
X143810804Y-106643814D01*
X143810792Y-106643819D01*
X143653985Y-106723716D01*
X143511607Y-106827160D01*
X143511599Y-106827167D01*
X143387167Y-106951599D01*
X143387160Y-106951607D01*
X143283716Y-107093985D01*
X143203819Y-107250792D01*
X143203814Y-107250804D01*
X143149432Y-107418175D01*
X143149431Y-107418178D01*
X143121901Y-107591992D01*
X143121900Y-107592006D01*
X129502342Y-107592006D01*
X129485192Y-107528000D01*
X130167599Y-107528000D01*
X130167599Y-106771011D01*
X130164650Y-106745592D01*
X130164650Y-106745591D01*
X130118742Y-106641621D01*
X130038378Y-106561257D01*
X129934405Y-106515348D01*
X129908989Y-106512400D01*
X129152000Y-106512400D01*
X129152000Y-107194807D01*
X129066880Y-107172000D01*
X128933120Y-107172000D01*
X128848000Y-107194807D01*
X128848000Y-106512400D01*
X128091011Y-106512400D01*
X128065592Y-106515349D01*
X128065591Y-106515349D01*
X127961621Y-106561257D01*
X127881257Y-106641621D01*
X127835348Y-106745594D01*
X127832400Y-106771011D01*
X113730328Y-106771011D01*
X115449333Y-105052006D01*
X127881900Y-105052006D01*
X127881900Y-105227993D01*
X127881901Y-105228007D01*
X127909431Y-105401821D01*
X127909432Y-105401824D01*
X127963814Y-105569195D01*
X127963816Y-105569201D01*
X127963818Y-105569206D01*
X127963819Y-105569207D01*
X128043716Y-105726014D01*
X128147160Y-105868392D01*
X128147167Y-105868400D01*
X128271599Y-105992832D01*
X128271607Y-105992839D01*
X128413988Y-106096285D01*
X128570799Y-106176184D01*
X128738178Y-106230568D01*
X128912004Y-106258100D01*
X128912006Y-106258100D01*
X129087994Y-106258100D01*
X129087996Y-106258100D01*
X129261822Y-106230568D01*
X129429201Y-106176184D01*
X129586012Y-106096285D01*
X129728393Y-105992839D01*
X129852839Y-105868393D01*
X129956285Y-105726012D01*
X130036184Y-105569201D01*
X130090568Y-105401822D01*
X130118100Y-105227996D01*
X130118100Y-105052006D01*
X143121900Y-105052006D01*
X143121900Y-105227993D01*
X143121901Y-105228007D01*
X143149431Y-105401821D01*
X143149432Y-105401824D01*
X143203814Y-105569195D01*
X143203816Y-105569201D01*
X143203818Y-105569206D01*
X143203819Y-105569207D01*
X143283716Y-105726014D01*
X143387160Y-105868392D01*
X143387167Y-105868400D01*
X143511599Y-105992832D01*
X143511607Y-105992839D01*
X143653988Y-106096285D01*
X143810799Y-106176184D01*
X143978178Y-106230568D01*
X144152004Y-106258100D01*
X144152006Y-106258100D01*
X144327994Y-106258100D01*
X144327996Y-106258100D01*
X144501822Y-106230568D01*
X144669201Y-106176184D01*
X144826012Y-106096285D01*
X144968393Y-105992839D01*
X145092839Y-105868393D01*
X145196285Y-105726012D01*
X145276184Y-105569201D01*
X145330568Y-105401822D01*
X145358100Y-105227996D01*
X145358100Y-105052004D01*
X145330568Y-104878178D01*
X145276184Y-104710799D01*
X145196285Y-104553988D01*
X145092839Y-104411607D01*
X145092832Y-104411599D01*
X144968400Y-104287167D01*
X144968392Y-104287160D01*
X144826014Y-104183716D01*
X144669207Y-104103819D01*
X144669206Y-104103818D01*
X144669201Y-104103816D01*
X144669195Y-104103814D01*
X144501824Y-104049432D01*
X144501821Y-104049431D01*
X144328007Y-104021901D01*
X144327997Y-104021900D01*
X144327996Y-104021900D01*
X144152004Y-104021900D01*
X144152002Y-104021900D01*
X144151992Y-104021901D01*
X143978178Y-104049431D01*
X143978175Y-104049432D01*
X143810804Y-104103814D01*
X143810792Y-104103819D01*
X143653985Y-104183716D01*
X143511607Y-104287160D01*
X143511599Y-104287167D01*
X143387167Y-104411599D01*
X143387160Y-104411607D01*
X143283716Y-104553985D01*
X143203819Y-104710792D01*
X143203814Y-104710804D01*
X143149432Y-104878175D01*
X143149431Y-104878178D01*
X143121901Y-105051992D01*
X143121900Y-105052006D01*
X130118100Y-105052006D01*
X130118100Y-105052004D01*
X130090568Y-104878178D01*
X130036184Y-104710799D01*
X129956285Y-104553988D01*
X129852839Y-104411607D01*
X129852832Y-104411599D01*
X129728400Y-104287167D01*
X129728392Y-104287160D01*
X129586014Y-104183716D01*
X129429207Y-104103819D01*
X129429206Y-104103818D01*
X129429201Y-104103816D01*
X129429195Y-104103814D01*
X129261824Y-104049432D01*
X129261821Y-104049431D01*
X129088007Y-104021901D01*
X129087997Y-104021900D01*
X129087996Y-104021900D01*
X128912004Y-104021900D01*
X128912002Y-104021900D01*
X128911992Y-104021901D01*
X128738178Y-104049431D01*
X128738175Y-104049432D01*
X128570804Y-104103814D01*
X128570792Y-104103819D01*
X128413985Y-104183716D01*
X128271607Y-104287160D01*
X128271599Y-104287167D01*
X128147167Y-104411599D01*
X128147160Y-104411607D01*
X128043716Y-104553985D01*
X127963819Y-104710792D01*
X127963814Y-104710804D01*
X127909432Y-104878175D01*
X127909431Y-104878178D01*
X127881901Y-105051992D01*
X127881900Y-105052006D01*
X115449333Y-105052006D01*
X115495985Y-105005354D01*
X117989334Y-102512006D01*
X127881900Y-102512006D01*
X127881900Y-102687993D01*
X127881901Y-102688007D01*
X127909431Y-102861821D01*
X127909432Y-102861824D01*
X127956441Y-103006502D01*
X127963816Y-103029201D01*
X127963818Y-103029206D01*
X127963819Y-103029207D01*
X128043716Y-103186014D01*
X128147160Y-103328392D01*
X128147167Y-103328400D01*
X128271599Y-103452832D01*
X128271607Y-103452839D01*
X128383875Y-103534407D01*
X128413988Y-103556285D01*
X128570799Y-103636184D01*
X128738178Y-103690568D01*
X128912004Y-103718100D01*
X128912006Y-103718100D01*
X129087994Y-103718100D01*
X129087996Y-103718100D01*
X129261822Y-103690568D01*
X129429201Y-103636184D01*
X129586012Y-103556285D01*
X129728393Y-103452839D01*
X129852839Y-103328393D01*
X129956285Y-103186012D01*
X130036184Y-103029201D01*
X130090568Y-102861822D01*
X130118100Y-102687996D01*
X130118100Y-102512004D01*
X130090568Y-102338178D01*
X130036184Y-102170799D01*
X129956285Y-102013988D01*
X129950462Y-102005974D01*
X129852839Y-101871607D01*
X129852832Y-101871599D01*
X129728400Y-101747167D01*
X129728392Y-101747160D01*
X129718219Y-101739769D01*
X129651110Y-101691011D01*
X143072400Y-101691011D01*
X143072400Y-102448000D01*
X143754808Y-102448000D01*
X143732000Y-102533120D01*
X143732000Y-102666880D01*
X143754808Y-102752000D01*
X143072401Y-102752000D01*
X143072401Y-103508988D01*
X143075349Y-103534407D01*
X143075349Y-103534408D01*
X143121257Y-103638378D01*
X143201621Y-103718742D01*
X143305594Y-103764651D01*
X143331011Y-103767599D01*
X144088000Y-103767599D01*
X144088000Y-103085192D01*
X144173120Y-103108000D01*
X144306880Y-103108000D01*
X144392000Y-103085192D01*
X144392000Y-103767599D01*
X145148988Y-103767599D01*
X145174407Y-103764650D01*
X145174408Y-103764650D01*
X145278378Y-103718742D01*
X145358742Y-103638378D01*
X145404651Y-103534405D01*
X145407600Y-103508988D01*
X145407600Y-102752000D01*
X144725192Y-102752000D01*
X144748000Y-102666880D01*
X144748000Y-102533120D01*
X144725192Y-102448000D01*
X145407599Y-102448000D01*
X145407599Y-101691011D01*
X145404650Y-101665592D01*
X145404650Y-101665591D01*
X145358742Y-101561621D01*
X145278378Y-101481257D01*
X145174405Y-101435348D01*
X145148989Y-101432400D01*
X144392000Y-101432400D01*
X144392000Y-102114807D01*
X144306880Y-102092000D01*
X144173120Y-102092000D01*
X144088000Y-102114807D01*
X144088000Y-101432400D01*
X143331011Y-101432400D01*
X143305592Y-101435349D01*
X143305591Y-101435349D01*
X143201621Y-101481257D01*
X143121257Y-101561621D01*
X143075348Y-101665594D01*
X143072400Y-101691011D01*
X129651110Y-101691011D01*
X129586014Y-101643716D01*
X129429207Y-101563819D01*
X129429206Y-101563818D01*
X129429201Y-101563816D01*
X129429195Y-101563814D01*
X129261824Y-101509432D01*
X129261821Y-101509431D01*
X129088007Y-101481901D01*
X129087997Y-101481900D01*
X129087996Y-101481900D01*
X128912004Y-101481900D01*
X128912002Y-101481900D01*
X128911992Y-101481901D01*
X128738178Y-101509431D01*
X128738175Y-101509432D01*
X128570804Y-101563814D01*
X128570792Y-101563819D01*
X128413985Y-101643716D01*
X128271607Y-101747160D01*
X128271599Y-101747167D01*
X128147167Y-101871599D01*
X128147160Y-101871607D01*
X128043716Y-102013985D01*
X127963819Y-102170792D01*
X127963814Y-102170804D01*
X127909432Y-102338175D01*
X127909431Y-102338178D01*
X127881901Y-102511992D01*
X127881900Y-102512006D01*
X117989334Y-102512006D01*
X118035986Y-102465354D01*
X120283666Y-100217673D01*
X120283671Y-100217668D01*
X120285772Y-100214029D01*
X120285775Y-100214025D01*
X120323889Y-100148007D01*
X120330341Y-100136832D01*
X120354500Y-100046671D01*
X120354500Y-99972006D01*
X127881900Y-99972006D01*
X127881900Y-100147993D01*
X127881901Y-100148007D01*
X127909431Y-100321821D01*
X127909432Y-100321824D01*
X127963814Y-100489195D01*
X127963816Y-100489201D01*
X127963818Y-100489206D01*
X127963819Y-100489207D01*
X128043716Y-100646014D01*
X128147160Y-100788392D01*
X128147167Y-100788400D01*
X128271599Y-100912832D01*
X128271607Y-100912839D01*
X128413988Y-101016285D01*
X128570799Y-101096184D01*
X128738178Y-101150568D01*
X128912004Y-101178100D01*
X128912006Y-101178100D01*
X129087994Y-101178100D01*
X129087996Y-101178100D01*
X129261822Y-101150568D01*
X129429201Y-101096184D01*
X129586012Y-101016285D01*
X129728393Y-100912839D01*
X129852839Y-100788393D01*
X129956285Y-100646012D01*
X130036184Y-100489201D01*
X130090568Y-100321822D01*
X130118100Y-100147996D01*
X130118100Y-99972006D01*
X143121900Y-99972006D01*
X143121900Y-100147993D01*
X143121901Y-100148007D01*
X143149431Y-100321821D01*
X143149432Y-100321824D01*
X143203814Y-100489195D01*
X143203816Y-100489201D01*
X143203818Y-100489206D01*
X143203819Y-100489207D01*
X143283716Y-100646014D01*
X143387160Y-100788392D01*
X143387167Y-100788400D01*
X143511599Y-100912832D01*
X143511607Y-100912839D01*
X143653988Y-101016285D01*
X143810799Y-101096184D01*
X143978178Y-101150568D01*
X144152004Y-101178100D01*
X144152006Y-101178100D01*
X144327994Y-101178100D01*
X144327996Y-101178100D01*
X144501822Y-101150568D01*
X144669201Y-101096184D01*
X144826012Y-101016285D01*
X144968393Y-100912839D01*
X145092839Y-100788393D01*
X145196285Y-100646012D01*
X145276184Y-100489201D01*
X145330568Y-100321822D01*
X145358100Y-100147996D01*
X145358100Y-99972004D01*
X145330568Y-99798178D01*
X145276184Y-99630799D01*
X145196285Y-99473988D01*
X145092839Y-99331607D01*
X145092832Y-99331599D01*
X144968400Y-99207167D01*
X144968392Y-99207160D01*
X144826014Y-99103716D01*
X144669207Y-99023819D01*
X144669206Y-99023818D01*
X144669201Y-99023816D01*
X144616606Y-99006727D01*
X144501824Y-98969432D01*
X144501821Y-98969431D01*
X144328007Y-98941901D01*
X144327997Y-98941900D01*
X144327996Y-98941900D01*
X144152004Y-98941900D01*
X144152002Y-98941900D01*
X144151992Y-98941901D01*
X143978178Y-98969431D01*
X143978175Y-98969432D01*
X143810804Y-99023814D01*
X143810792Y-99023819D01*
X143653985Y-99103716D01*
X143511607Y-99207160D01*
X143511599Y-99207167D01*
X143387167Y-99331599D01*
X143387160Y-99331607D01*
X143283716Y-99473985D01*
X143203819Y-99630792D01*
X143203814Y-99630804D01*
X143149432Y-99798175D01*
X143149431Y-99798178D01*
X143121901Y-99971992D01*
X143121900Y-99972006D01*
X130118100Y-99972006D01*
X130118100Y-99972004D01*
X130090568Y-99798178D01*
X130036184Y-99630799D01*
X129956285Y-99473988D01*
X129852839Y-99331607D01*
X129852832Y-99331599D01*
X129728400Y-99207167D01*
X129728392Y-99207160D01*
X129586014Y-99103716D01*
X129429207Y-99023819D01*
X129429206Y-99023818D01*
X129429201Y-99023816D01*
X129376606Y-99006727D01*
X129261824Y-98969432D01*
X129261821Y-98969431D01*
X129088007Y-98941901D01*
X129087997Y-98941900D01*
X129087996Y-98941900D01*
X128912004Y-98941900D01*
X128912002Y-98941900D01*
X128911992Y-98941901D01*
X128738178Y-98969431D01*
X128738175Y-98969432D01*
X128570804Y-99023814D01*
X128570792Y-99023819D01*
X128413985Y-99103716D01*
X128271607Y-99207160D01*
X128271599Y-99207167D01*
X128147167Y-99331599D01*
X128147160Y-99331607D01*
X128043716Y-99473985D01*
X127963819Y-99630792D01*
X127963814Y-99630804D01*
X127909432Y-99798175D01*
X127909431Y-99798178D01*
X127881901Y-99971992D01*
X127881900Y-99972006D01*
X120354500Y-99972006D01*
X120354500Y-97429456D01*
X127849500Y-97429456D01*
X127849500Y-97610543D01*
X127849501Y-97610559D01*
X127877828Y-97789403D01*
X127877831Y-97789416D01*
X127933787Y-97961633D01*
X127933789Y-97961640D01*
X127990530Y-98072999D01*
X128016004Y-98122994D01*
X128122447Y-98269501D01*
X128122450Y-98269504D01*
X128122453Y-98269508D01*
X128250491Y-98397546D01*
X128250494Y-98397548D01*
X128250499Y-98397553D01*
X128397006Y-98503996D01*
X128558361Y-98586211D01*
X128730591Y-98642171D01*
X128870922Y-98664397D01*
X128909440Y-98670498D01*
X128909446Y-98670498D01*
X128909454Y-98670500D01*
X128909456Y-98670500D01*
X129090544Y-98670500D01*
X129090546Y-98670500D01*
X129269409Y-98642171D01*
X129441639Y-98586211D01*
X129602994Y-98503996D01*
X129749501Y-98397553D01*
X129877553Y-98269501D01*
X129983996Y-98122994D01*
X130066211Y-97961639D01*
X130122171Y-97789409D01*
X130150500Y-97610546D01*
X130150500Y-97429456D01*
X143089500Y-97429456D01*
X143089500Y-97610543D01*
X143089501Y-97610559D01*
X143117828Y-97789403D01*
X143117831Y-97789416D01*
X143173787Y-97961633D01*
X143173789Y-97961640D01*
X143230530Y-98072999D01*
X143256004Y-98122994D01*
X143362447Y-98269501D01*
X143362450Y-98269504D01*
X143362453Y-98269508D01*
X143490491Y-98397546D01*
X143490494Y-98397548D01*
X143490499Y-98397553D01*
X143637006Y-98503996D01*
X143798361Y-98586211D01*
X143970591Y-98642171D01*
X144110922Y-98664397D01*
X144149440Y-98670498D01*
X144149446Y-98670498D01*
X144149454Y-98670500D01*
X144149456Y-98670500D01*
X144330544Y-98670500D01*
X144330546Y-98670500D01*
X144509409Y-98642171D01*
X144681639Y-98586211D01*
X144842994Y-98503996D01*
X144989501Y-98397553D01*
X145117553Y-98269501D01*
X145223996Y-98122994D01*
X145306211Y-97961639D01*
X145362171Y-97789409D01*
X145390500Y-97610546D01*
X145390500Y-97429454D01*
X145387461Y-97410269D01*
X145384397Y-97390922D01*
X145362171Y-97250591D01*
X145306211Y-97078361D01*
X145223996Y-96917006D01*
X145117553Y-96770499D01*
X145117548Y-96770494D01*
X145117546Y-96770491D01*
X144989508Y-96642453D01*
X144989504Y-96642450D01*
X144989501Y-96642447D01*
X144842994Y-96536004D01*
X144791282Y-96509655D01*
X144681640Y-96453789D01*
X144681633Y-96453787D01*
X144509416Y-96397831D01*
X144509413Y-96397830D01*
X144509409Y-96397829D01*
X144507029Y-96397452D01*
X144330559Y-96369501D01*
X144330547Y-96369500D01*
X144330546Y-96369500D01*
X144149454Y-96369500D01*
X144149452Y-96369500D01*
X144149440Y-96369501D01*
X143970596Y-96397828D01*
X143970593Y-96397828D01*
X143970591Y-96397829D01*
X143970589Y-96397829D01*
X143970583Y-96397831D01*
X143798366Y-96453787D01*
X143798359Y-96453789D01*
X143637005Y-96536004D01*
X143490491Y-96642453D01*
X143362453Y-96770491D01*
X143256004Y-96917005D01*
X143173789Y-97078359D01*
X143173787Y-97078366D01*
X143117831Y-97250583D01*
X143117828Y-97250596D01*
X143089501Y-97429440D01*
X143089500Y-97429456D01*
X130150500Y-97429456D01*
X130150500Y-97429454D01*
X130147461Y-97410269D01*
X130144397Y-97390922D01*
X130122171Y-97250591D01*
X130066211Y-97078361D01*
X129983996Y-96917006D01*
X129877553Y-96770499D01*
X129877548Y-96770494D01*
X129877546Y-96770491D01*
X129749508Y-96642453D01*
X129749504Y-96642450D01*
X129749501Y-96642447D01*
X129602994Y-96536004D01*
X129551282Y-96509655D01*
X129441640Y-96453789D01*
X129441633Y-96453787D01*
X129269416Y-96397831D01*
X129269413Y-96397830D01*
X129269409Y-96397829D01*
X129267029Y-96397452D01*
X129090559Y-96369501D01*
X129090547Y-96369500D01*
X129090546Y-96369500D01*
X128909454Y-96369500D01*
X128909452Y-96369500D01*
X128909440Y-96369501D01*
X128730596Y-96397828D01*
X128730593Y-96397828D01*
X128730591Y-96397829D01*
X128730589Y-96397829D01*
X128730583Y-96397831D01*
X128558366Y-96453787D01*
X128558359Y-96453789D01*
X128397005Y-96536004D01*
X128250491Y-96642453D01*
X128122453Y-96770491D01*
X128016004Y-96917005D01*
X127933789Y-97078359D01*
X127933787Y-97078366D01*
X127877831Y-97250583D01*
X127877828Y-97250596D01*
X127849501Y-97429440D01*
X127849500Y-97429456D01*
X120354500Y-97429456D01*
X120354500Y-95836670D01*
X120372806Y-95792476D01*
X120417000Y-95774170D01*
X120461194Y-95792476D01*
X120952389Y-96283671D01*
X121033225Y-96330341D01*
X121071030Y-96340471D01*
X121123380Y-96354499D01*
X121123386Y-96354500D01*
X121216728Y-96354500D01*
X121544430Y-96354500D01*
X121588624Y-96372806D01*
X121659529Y-96443711D01*
X121763383Y-96503671D01*
X121785971Y-96516712D01*
X121785974Y-96516713D01*
X121857970Y-96536004D01*
X121926999Y-96554500D01*
X121927000Y-96554500D01*
X122073000Y-96554500D01*
X122073001Y-96554500D01*
X122214029Y-96516712D01*
X122340471Y-96443711D01*
X122443711Y-96340471D01*
X122516712Y-96214029D01*
X122554500Y-96073001D01*
X122554500Y-95926999D01*
X122516712Y-95785971D01*
X122443711Y-95659529D01*
X122443709Y-95659527D01*
X122443706Y-95659523D01*
X122340476Y-95556293D01*
X122340472Y-95556290D01*
X122340471Y-95556289D01*
X122277250Y-95519788D01*
X122214028Y-95483287D01*
X122214025Y-95483286D01*
X122073007Y-95445501D01*
X122073002Y-95445500D01*
X122073001Y-95445500D01*
X121926999Y-95445500D01*
X121926998Y-95445500D01*
X121926992Y-95445501D01*
X121844793Y-95467526D01*
X121797367Y-95461282D01*
X121768247Y-95423332D01*
X121768247Y-95390980D01*
X121794498Y-95293007D01*
X121794500Y-95292999D01*
X121794500Y-95192727D01*
X121812806Y-95148533D01*
X122122671Y-94838668D01*
X122158685Y-94776289D01*
X122169341Y-94757832D01*
X122193500Y-94667671D01*
X122193500Y-93095200D01*
X123440819Y-93095200D01*
X123440819Y-93241199D01*
X123440820Y-93241207D01*
X123478605Y-93382225D01*
X123478606Y-93382228D01*
X123551609Y-93508672D01*
X123551612Y-93508676D01*
X123654842Y-93611906D01*
X123654846Y-93611909D01*
X123654848Y-93611911D01*
X123747669Y-93665501D01*
X123781290Y-93684912D01*
X123781293Y-93684913D01*
X123849863Y-93703286D01*
X123922318Y-93722700D01*
X123922319Y-93722700D01*
X124068319Y-93722700D01*
X124068320Y-93722700D01*
X124209348Y-93684912D01*
X124335790Y-93611911D01*
X124439030Y-93508671D01*
X124512031Y-93382229D01*
X124549819Y-93241201D01*
X124549819Y-93095199D01*
X124512031Y-92954171D01*
X124439030Y-92827729D01*
X124439028Y-92827727D01*
X124439025Y-92827723D01*
X124368125Y-92756823D01*
X124349819Y-92712629D01*
X124349819Y-91868494D01*
X124368125Y-91824300D01*
X124396141Y-91808124D01*
X124454029Y-91792614D01*
X124580471Y-91719613D01*
X124651376Y-91648708D01*
X124695570Y-91630402D01*
X127840331Y-91630402D01*
X127884525Y-91648708D01*
X127899523Y-91663706D01*
X127899527Y-91663709D01*
X127899529Y-91663711D01*
X127996346Y-91719608D01*
X128025971Y-91736712D01*
X128025974Y-91736713D01*
X128112274Y-91759836D01*
X128166999Y-91774500D01*
X128167000Y-91774500D01*
X128313000Y-91774500D01*
X128313001Y-91774500D01*
X128454029Y-91736712D01*
X128580471Y-91663711D01*
X128683711Y-91560471D01*
X128756712Y-91434029D01*
X128794500Y-91293001D01*
X128794500Y-91146999D01*
X128756712Y-91005971D01*
X128683711Y-90879529D01*
X128683709Y-90879527D01*
X128683706Y-90879523D01*
X128580476Y-90776293D01*
X128580472Y-90776290D01*
X128580471Y-90776289D01*
X128517250Y-90739788D01*
X128454028Y-90703287D01*
X128454025Y-90703286D01*
X128313007Y-90665501D01*
X128313002Y-90665500D01*
X128313001Y-90665500D01*
X128166999Y-90665500D01*
X128166998Y-90665500D01*
X128166992Y-90665501D01*
X128025974Y-90703286D01*
X128025971Y-90703287D01*
X127899527Y-90776290D01*
X127899523Y-90776293D01*
X127796289Y-90879528D01*
X127790156Y-90890152D01*
X127752205Y-90919272D01*
X127736029Y-90921402D01*
X124695570Y-90921402D01*
X124651376Y-90903096D01*
X124580472Y-90832192D01*
X124580471Y-90832191D01*
X124508502Y-90790640D01*
X124454028Y-90759189D01*
X124454025Y-90759188D01*
X124313007Y-90721403D01*
X124313002Y-90721402D01*
X124313001Y-90721402D01*
X124166999Y-90721402D01*
X124166998Y-90721402D01*
X124166992Y-90721403D01*
X124025974Y-90759188D01*
X124025971Y-90759189D01*
X123899527Y-90832192D01*
X123899523Y-90832195D01*
X123796293Y-90935425D01*
X123796290Y-90935429D01*
X123723287Y-91061873D01*
X123723286Y-91061876D01*
X123685501Y-91202894D01*
X123685500Y-91202902D01*
X123685500Y-91331458D01*
X123677127Y-91362707D01*
X123664979Y-91383747D01*
X123664977Y-91383753D01*
X123640819Y-91473906D01*
X123640819Y-92712629D01*
X123622513Y-92756823D01*
X123551612Y-92827723D01*
X123551609Y-92827727D01*
X123478606Y-92954171D01*
X123478605Y-92954174D01*
X123440820Y-93095192D01*
X123440819Y-93095200D01*
X122193500Y-93095200D01*
X122193500Y-91187815D01*
X122193501Y-91187802D01*
X122193501Y-91089429D01*
X122193500Y-91089423D01*
X122180662Y-91041515D01*
X122169342Y-90999269D01*
X122122671Y-90918432D01*
X122122669Y-90918430D01*
X122122666Y-90918426D01*
X121835506Y-90631266D01*
X121817200Y-90587072D01*
X121817200Y-90307727D01*
X121835506Y-90263533D01*
X122122666Y-89976373D01*
X122122671Y-89976368D01*
X122169342Y-89895531D01*
X122193501Y-89805371D01*
X122193501Y-89712029D01*
X122193501Y-89708205D01*
X122193500Y-89708187D01*
X122193500Y-88697662D01*
X122211805Y-88653469D01*
X122265825Y-88599447D01*
X122265837Y-88599438D01*
X122375075Y-88490200D01*
X122375080Y-88490195D01*
X122448081Y-88363753D01*
X122485869Y-88222725D01*
X122485869Y-88076723D01*
X122448081Y-87935695D01*
X122375080Y-87809253D01*
X122375078Y-87809251D01*
X122375075Y-87809247D01*
X122271845Y-87706017D01*
X122271841Y-87706014D01*
X122271840Y-87706013D01*
X122191317Y-87659523D01*
X122145397Y-87633011D01*
X122145394Y-87633010D01*
X122004376Y-87595225D01*
X122004371Y-87595224D01*
X122004370Y-87595224D01*
X121858368Y-87595224D01*
X121858367Y-87595224D01*
X121858361Y-87595225D01*
X121717343Y-87633010D01*
X121717340Y-87633011D01*
X121628461Y-87684325D01*
X121590898Y-87706013D01*
X121590897Y-87706014D01*
X121590893Y-87706017D01*
X121572193Y-87724717D01*
X121527999Y-87743022D01*
X121483805Y-87724715D01*
X121473873Y-87711772D01*
X121443711Y-87659529D01*
X121443709Y-87659527D01*
X121443706Y-87659523D01*
X121340476Y-87556293D01*
X121340472Y-87556290D01*
X121340471Y-87556289D01*
X121277250Y-87519788D01*
X121214028Y-87483287D01*
X121214025Y-87483286D01*
X121073007Y-87445501D01*
X121073002Y-87445500D01*
X121073001Y-87445500D01*
X120926999Y-87445500D01*
X120926998Y-87445500D01*
X120926992Y-87445501D01*
X120785974Y-87483286D01*
X120785971Y-87483287D01*
X120659527Y-87556290D01*
X120659523Y-87556293D01*
X120556293Y-87659523D01*
X120556290Y-87659527D01*
X120483287Y-87785971D01*
X120483286Y-87785974D01*
X120477370Y-87808056D01*
X120448250Y-87846007D01*
X120400824Y-87852250D01*
X120362873Y-87823130D01*
X120354500Y-87791880D01*
X120354500Y-87455570D01*
X120372806Y-87411376D01*
X120443711Y-87340471D01*
X120516712Y-87214029D01*
X120554500Y-87073001D01*
X120554500Y-86926999D01*
X120516712Y-86785971D01*
X120443711Y-86659529D01*
X120443709Y-86659527D01*
X120443706Y-86659523D01*
X120340476Y-86556293D01*
X120340472Y-86556290D01*
X120340471Y-86556289D01*
X120277250Y-86519788D01*
X120214028Y-86483287D01*
X120214025Y-86483286D01*
X120073007Y-86445501D01*
X120073002Y-86445500D01*
X120073001Y-86445500D01*
X119926999Y-86445500D01*
X119926998Y-86445500D01*
X119926992Y-86445501D01*
X119785974Y-86483286D01*
X119785971Y-86483287D01*
X119659527Y-86556290D01*
X119659523Y-86556293D01*
X119556293Y-86659523D01*
X119556290Y-86659527D01*
X119483287Y-86785971D01*
X119483286Y-86785974D01*
X119445501Y-86926992D01*
X119445500Y-86927000D01*
X119445500Y-87072999D01*
X119445501Y-87073007D01*
X119483286Y-87214025D01*
X119483287Y-87214028D01*
X119556290Y-87340472D01*
X119627194Y-87411376D01*
X119645500Y-87455570D01*
X119645500Y-88287273D01*
X119627194Y-88331467D01*
X118956329Y-89002331D01*
X118909659Y-89083168D01*
X118909658Y-89083170D01*
X118885500Y-89173323D01*
X118885500Y-96047273D01*
X118867194Y-96091467D01*
X113111467Y-101847194D01*
X113067273Y-101865500D01*
X110695570Y-101865500D01*
X110651376Y-101847194D01*
X110580472Y-101776290D01*
X110580471Y-101776289D01*
X110517216Y-101739769D01*
X110454028Y-101703287D01*
X110454025Y-101703286D01*
X110313007Y-101665501D01*
X110313002Y-101665500D01*
X110313001Y-101665500D01*
X110166999Y-101665500D01*
X110166998Y-101665500D01*
X110166992Y-101665501D01*
X110025974Y-101703286D01*
X110025971Y-101703287D01*
X109899527Y-101776290D01*
X109899523Y-101776293D01*
X109796293Y-101879523D01*
X109796290Y-101879527D01*
X109723287Y-102005971D01*
X109723286Y-102005974D01*
X109685501Y-102146992D01*
X109685500Y-102147000D01*
X105354500Y-102147000D01*
X105354500Y-99632727D01*
X105372806Y-99588533D01*
X110168533Y-94792806D01*
X110212727Y-94774500D01*
X110313000Y-94774500D01*
X110313001Y-94774500D01*
X110454029Y-94736712D01*
X110580471Y-94663711D01*
X110683711Y-94560471D01*
X110756712Y-94434029D01*
X110794500Y-94293001D01*
X110794500Y-94146999D01*
X110756712Y-94005971D01*
X110683711Y-93879529D01*
X110683709Y-93879527D01*
X110683706Y-93879523D01*
X110580476Y-93776293D01*
X110580472Y-93776290D01*
X110580471Y-93776289D01*
X110487652Y-93722700D01*
X110454028Y-93703287D01*
X110454025Y-93703286D01*
X110313007Y-93665501D01*
X110313002Y-93665500D01*
X110313001Y-93665500D01*
X110166999Y-93665500D01*
X110166998Y-93665500D01*
X110166992Y-93665501D01*
X110025974Y-93703286D01*
X110025971Y-93703287D01*
X109899527Y-93776290D01*
X109899523Y-93776293D01*
X109796293Y-93879523D01*
X109796290Y-93879527D01*
X109723287Y-94005971D01*
X109723286Y-94005974D01*
X109685501Y-94146992D01*
X109685500Y-94147000D01*
X109685500Y-94247273D01*
X109667194Y-94291467D01*
X104716329Y-99242331D01*
X104669659Y-99323168D01*
X104669658Y-99323170D01*
X104645500Y-99413323D01*
X104645500Y-135824429D01*
X104627194Y-135868623D01*
X104556293Y-135939523D01*
X104556290Y-135939527D01*
X104483287Y-136065971D01*
X104483286Y-136065974D01*
X104445501Y-136206992D01*
X104445500Y-136207000D01*
X100500500Y-136207000D01*
X100500500Y-72893715D01*
X101649500Y-72893715D01*
X101649500Y-73106284D01*
X101649501Y-73106300D01*
X101682753Y-73316240D01*
X101682753Y-73316241D01*
X101748442Y-73518410D01*
X101748446Y-73518418D01*
X101844949Y-73707817D01*
X101969897Y-73879794D01*
X102120205Y-74030102D01*
X102292182Y-74155050D01*
X102292184Y-74155051D01*
X102481588Y-74251557D01*
X102683757Y-74317246D01*
X102772244Y-74331261D01*
X102893699Y-74350498D01*
X102893705Y-74350498D01*
X102893713Y-74350500D01*
X102893715Y-74350500D01*
X103106285Y-74350500D01*
X103106287Y-74350500D01*
X103316243Y-74317246D01*
X103518412Y-74251557D01*
X103707816Y-74155051D01*
X103879792Y-74030104D01*
X104030104Y-73879792D01*
X104155051Y-73707816D01*
X104251557Y-73518412D01*
X104317246Y-73316243D01*
X104350500Y-73106287D01*
X104350500Y-72893715D01*
X145649500Y-72893715D01*
X145649500Y-73106284D01*
X145649501Y-73106300D01*
X145682753Y-73316240D01*
X145682753Y-73316241D01*
X145748442Y-73518410D01*
X145748446Y-73518418D01*
X145844949Y-73707817D01*
X145969897Y-73879794D01*
X146120205Y-74030102D01*
X146292182Y-74155050D01*
X146292184Y-74155051D01*
X146481588Y-74251557D01*
X146683757Y-74317246D01*
X146772244Y-74331261D01*
X146893699Y-74350498D01*
X146893705Y-74350498D01*
X146893713Y-74350500D01*
X146893715Y-74350500D01*
X147106285Y-74350500D01*
X147106287Y-74350500D01*
X147316243Y-74317246D01*
X147518412Y-74251557D01*
X147707816Y-74155051D01*
X147879792Y-74030104D01*
X148030104Y-73879792D01*
X148155051Y-73707816D01*
X148251557Y-73518412D01*
X148317246Y-73316243D01*
X148350500Y-73106287D01*
X148350500Y-72893713D01*
X148317246Y-72683757D01*
X148251557Y-72481588D01*
X148155051Y-72292184D01*
X148116420Y-72239013D01*
X148030102Y-72120205D01*
X147879794Y-71969897D01*
X147707817Y-71844949D01*
X147518418Y-71748446D01*
X147518410Y-71748442D01*
X147316241Y-71682753D01*
X147106300Y-71649501D01*
X147106288Y-71649500D01*
X147106287Y-71649500D01*
X146893713Y-71649500D01*
X146893711Y-71649500D01*
X146893699Y-71649501D01*
X146683759Y-71682753D01*
X146683758Y-71682753D01*
X146481589Y-71748442D01*
X146481581Y-71748446D01*
X146292182Y-71844949D01*
X146120205Y-71969897D01*
X145969897Y-72120205D01*
X145844949Y-72292182D01*
X145748446Y-72481581D01*
X145748442Y-72481589D01*
X145682753Y-72683758D01*
X145682753Y-72683759D01*
X145649501Y-72893699D01*
X145649500Y-72893715D01*
X104350500Y-72893715D01*
X104350500Y-72893713D01*
X104317246Y-72683757D01*
X104251557Y-72481588D01*
X104155051Y-72292184D01*
X104116420Y-72239013D01*
X104030102Y-72120205D01*
X103879794Y-71969897D01*
X103707817Y-71844949D01*
X103518418Y-71748446D01*
X103518410Y-71748442D01*
X103316241Y-71682753D01*
X103106300Y-71649501D01*
X103106288Y-71649500D01*
X103106287Y-71649500D01*
X102893713Y-71649500D01*
X102893711Y-71649500D01*
X102893699Y-71649501D01*
X102683759Y-71682753D01*
X102683758Y-71682753D01*
X102481589Y-71748442D01*
X102481581Y-71748446D01*
X102292182Y-71844949D01*
X102120205Y-71969897D01*
X101969897Y-72120205D01*
X101844949Y-72292182D01*
X101748446Y-72481581D01*
X101748442Y-72481589D01*
X101682753Y-72683758D01*
X101682753Y-72683759D01*
X101649501Y-72893699D01*
X101649500Y-72893715D01*
X100500500Y-72893715D01*
X100500500Y-72502043D01*
X100500634Y-72497955D01*
X100517338Y-72243100D01*
X100518405Y-72234995D01*
X100567834Y-71986493D01*
X100569942Y-71978626D01*
X100651386Y-71738702D01*
X100654513Y-71731153D01*
X100678381Y-71682754D01*
X100766575Y-71503913D01*
X100770653Y-71496850D01*
X100911420Y-71286178D01*
X100916384Y-71279709D01*
X101083452Y-71089204D01*
X101089204Y-71083452D01*
X101279709Y-70916384D01*
X101286178Y-70911420D01*
X101496850Y-70770653D01*
X101503913Y-70766575D01*
X101731157Y-70654511D01*
X101738702Y-70651386D01*
X101978626Y-70569942D01*
X101986493Y-70567834D01*
X102234998Y-70518404D01*
X102243098Y-70517338D01*
X102449435Y-70503814D01*
X102497956Y-70500634D01*
X102502044Y-70500500D01*
X102565892Y-70500500D01*
X147934108Y-70500500D01*
X147997764Y-70500500D01*
X148002223Y-70500659D01*
G37*
%TD.AperFunction*%
%TD*%
M02*
