%TF.GenerationSoftware,KiCad,Pcbnew,9.0.5*%
%TF.CreationDate,2025-10-13T11:36:25+02:00*%
%TF.ProjectId,MAX31865,4d415833-3138-4363-952e-6b696361645f,rev?*%
%TF.SameCoordinates,Original*%
%TF.FileFunction,Plated,1,2,PTH,Drill*%
%TF.FilePolarity,Positive*%
%FSLAX46Y46*%
G04 Gerber Fmt 4.6, Leading zero omitted, Abs format (unit mm)*
G04 Created by KiCad (PCBNEW 9.0.5) date 2025-10-13 11:36:25*
%MOMM*%
%LPD*%
G01*
G04 APERTURE LIST*
%TA.AperFunction,ViaDrill*%
%ADD10C,0.300000*%
%TD*%
%TA.AperFunction,ViaDrill*%
%ADD11C,0.500000*%
%TD*%
%TA.AperFunction,ComponentDrill*%
%ADD12C,1.000000*%
%TD*%
%TA.AperFunction,ComponentDrill*%
%ADD13C,1.016000*%
%TD*%
%TA.AperFunction,ComponentDrill*%
%ADD14C,1.190000*%
%TD*%
G04 APERTURE END LIST*
D10*
X103000000Y-130000000D03*
X105000000Y-136280000D03*
X107000000Y-113000000D03*
X110240000Y-94220000D03*
X110240000Y-102220000D03*
X111240000Y-90220000D03*
X111817499Y-110817499D03*
X112300000Y-143200000D03*
X113000000Y-123600000D03*
X114000000Y-112000000D03*
X114000000Y-141000000D03*
X116000000Y-115000000D03*
X116360000Y-83302500D03*
X117000000Y-100000000D03*
X118300000Y-104900000D03*
X119400000Y-98000000D03*
X120000000Y-87000000D03*
X120400000Y-84600000D03*
X121000000Y-88000000D03*
X121000000Y-89000000D03*
X121240000Y-95220000D03*
X121600000Y-97200000D03*
X121931369Y-88149724D03*
X122000000Y-96000000D03*
X122000000Y-122200000D03*
X122200000Y-134300000D03*
X123995319Y-93168200D03*
X124000000Y-136000000D03*
X124240000Y-91275902D03*
X124800000Y-82200000D03*
X126000000Y-136000000D03*
X126240000Y-75220000D03*
X128240000Y-83220000D03*
X128240000Y-91220000D03*
X132106900Y-90047400D03*
X136000000Y-100000000D03*
D11*
X122216900Y-90447400D03*
D12*
%TO.C,JP7*%
X110460000Y-121000000D03*
%TO.C,JP6*%
X110460000Y-126000000D03*
%TO.C,JP5*%
X110460000Y-131000000D03*
%TO.C,JP4*%
X110460000Y-136000000D03*
%TO.C,JP7*%
X113000000Y-121000000D03*
%TO.C,JP6*%
X113000000Y-126000000D03*
%TO.C,JP5*%
X113000000Y-131000000D03*
%TO.C,JP4*%
X113000000Y-136000000D03*
%TO.C,JP7*%
X115540000Y-121000000D03*
%TO.C,JP6*%
X115540000Y-126000000D03*
%TO.C,JP5*%
X115540000Y-131000000D03*
%TO.C,JP4*%
X115540000Y-136000000D03*
D13*
%TO.C,A1*%
X129000000Y-100060000D03*
X129000000Y-102600000D03*
X129000000Y-105140000D03*
X129000000Y-107680000D03*
X129000000Y-110220000D03*
X129000000Y-112760000D03*
X129000000Y-115300000D03*
X129000000Y-117840000D03*
X129000000Y-120380000D03*
X129000000Y-122920000D03*
X129000000Y-125460000D03*
X129000000Y-128000000D03*
X129000000Y-130540000D03*
X129000000Y-133080000D03*
X129000000Y-135620000D03*
X144240000Y-100060000D03*
X144240000Y-102600000D03*
X144240000Y-105140000D03*
X144240000Y-107680000D03*
X144240000Y-110220000D03*
X144240000Y-112760000D03*
X144240000Y-115300000D03*
X144240000Y-117840000D03*
X144240000Y-120380000D03*
X144240000Y-122920000D03*
X144240000Y-125460000D03*
X144240000Y-128000000D03*
X144240000Y-130540000D03*
X144240000Y-133080000D03*
X144240000Y-135620000D03*
D14*
%TO.C,J3*%
X108040000Y-145220000D03*
X110580000Y-145220000D03*
X113120000Y-145220000D03*
X115660000Y-145220000D03*
X118200000Y-145220000D03*
X120740000Y-145220000D03*
X123280000Y-145220000D03*
X125820000Y-145220000D03*
M02*
